<?xml version='1.0' encoding='UTF-8' standalone='no'?>
<!-- Created with Fritzing (http://www.fritzing.org/) -->
<svg xmlns:svg='http://www.w3.org/2000/svg' xmlns='http://www.w3.org/2000/svg' version='1.2' baseProfile='tiny' x='0in' y='0in' width='2.19291in' height='1.9118in' viewBox='0 0 157.89 137.65' >
<g partID='854137500'><g transform='translate(83.4996,137.65)' ><g transform='matrix(-1,0,0,-1,0,0)'  ><g  gorn="0.2" id="breadboard">
 <g  gorn="0.2.0" id="icon">
  <path  fill="#014cb1" stroke="none" stroke-width="0" d="M7.2,1.64976L50.4,1.64976A7.2,7.20001,0,0,1,57.6,8.84975L57.6,23.2497A7.2,7.20001,0,0,1,50.4,30.4497L7.2,30.4497A7.2,7.20001,0,0,1,0,23.2497L0,8.84975A7.2,7.20001,0,0,1,7.2,1.64976M33.3354,13.8897a0.992124,0.992125,0,1,0,1.98426,0,0.992124,0.992125,0,1,0,-1.98426,0zM22.2803,13.8897a0.992124,0.992125,0,1,0,1.98426,0,0.992124,0.992125,0,1,0,-1.98426,0zM12.9827,26.8497a1.41732,1.41732,0,1,0,2.83465,0,1.41732,1.41732,0,1,0,-2.83465,0zM20.1827,26.8497a1.41732,1.41732,0,1,0,2.83465,0,1.41732,1.41732,0,1,0,-2.83465,0zM27.3827,26.8497a1.41732,1.41732,0,1,0,2.83465,0,1.41732,1.41732,0,1,0,-2.83465,0zM34.5827,26.8497a1.41732,1.41732,0,1,0,2.83465,0,1.41732,1.41732,0,1,0,-2.83465,0zM41.7827,26.8497a1.41732,1.41732,0,1,0,2.83465,0,1.41732,1.41732,0,1,0,-2.83465,0zM3.65669,8.84975a3.54331,3.54331,0,1,0,7.08661,0,3.54331,3.54331,0,1,0,-7.08661,0zM46.8567,8.84975a3.54331,3.54331,0,1,0,7.08661,0,3.54331,3.54331,0,1,0,-7.08661,0zM37.1622,16.4409a0.992124,0.992125,0,1,0,1.98426,0,0.992124,0.992125,0,1,0,-1.98426,0zM18.4535,16.4409a0.992124,0.992125,0,1,0,1.98426,0,0.992124,0.992125,0,1,0,-1.98426,0zM38.1543,8.50393a0.850392,0.850393,0,1,0,1.70078,0,0.850392,0.850393,0,1,0,-1.70078,0zM17.7449,8.50393a0.850392,0.850393,0,1,0,1.70078,0,0.850392,0.850393,0,1,0,-1.70078,0z"/>
  <g >
   <title >layer 21</title>
   <g >
    <title >text:D-</title>
    <text  font-family="OCRA" fill="#ffffff" font-size="3.3408" stroke="none" stroke-width="0" text-anchor="middle" x="36" y="23.8401">D-</text>
   </g>
   <g >
    <title >text:D+</title>
    <text  font-family="OCRA" fill="#ffffff" font-size="3.3408" stroke="none" stroke-width="0" text-anchor="middle" x="28.8" y="23.8401">D+</text>
   </g>
   <g >
    <title >text:ID</title>
    <text  font-family="OCRA" fill="#ffffff" font-size="3.3408" stroke="none" stroke-width="0" text-anchor="middle" x="21.6" y="23.8401">ID</text>
   </g>
   <g >
    <title >text:GND</title>
    <text  font-family="OCRA" fill="#ffffff" font-size="3.3408" stroke="none" stroke-width="0" text-anchor="middle" x="14.4" y="23.8401">GND</text>
   </g>
   <g >
    <title >text:5V</title>
    <text  font-family="OCRA" fill="#ffffff" font-size="3.3408" stroke="none" stroke-width="0" text-anchor="middle" x="43.2" y="23.8401">5V</text>
   </g>
   <g >
    <title >text:Micro</title>
    <g transform="matrix(1, 0, 0, 1, 8.208, 21.8097)">
     <g >
      <g >
       <g >
        <g >
         <g >
          <g transform="rotate(270)">
           <g >
            <g >
             <g >
              <g >
               <g >
                <text  font-family="OCRA" fill="#ffffff" font-size="4.176" stroke="none" stroke-width="0" text-anchor="middle" x="0" y="0">Micro</text>
               </g>
              </g>
             </g>
            </g>
           </g>
          </g>
         </g>
        </g>
       </g>
      </g>
     </g>
    </g>
   </g>
   <g >
    <title >text:USB</title>
    <g transform="matrix(1, 0, 0, 1, 4.608, 18.5697)">
     <g >
      <g >
       <g >
        <g >
         <g >
          <g transform="rotate(270)">
           <g >
            <g >
             <g >
              <g >
               <g >
                <text  font-family="OCRA" fill="#ffffff" font-size="4.176" stroke="none" stroke-width="0" text-anchor="middle" x="0" y="0">USB</text>
               </g>
              </g>
             </g>
            </g>
           </g>
          </g>
         </g>
        </g>
       </g>
      </g>
     </g>
    </g>
   </g>
   <g >
    <title >element:FID1</title>
    <g >
     <title >package:FIDUCIAL_1MM</title>
    </g>
   </g>
   <g >
    <title >element:FID2</title>
    <g >
     <title >package:FIDUCIAL_1MM</title>
    </g>
   </g>
   <g >
    <title >element:JP2</title>
    <g >
     <title >package:1X05_ROUND_70</title>
    </g>
   </g>
   <g >
    <title >element:U$1</title>
    <g >
     <title >package:MOUNTINGHOLE_2.5_PLATED</title>
     <circle  fill="none" cx="7.2" cy="8.84975" r="5.66929" stroke="white" stroke-width="0.576"/>
    </g>
   </g>
   <g >
    <title >element:U$2</title>
    <g >
     <title >package:MOUNTINGHOLE_2.5_PLATED</title>
     <circle  fill="none" cx="50.4" cy="8.84975" r="5.66929" stroke="white" stroke-width="0.576"/>
    </g>
   </g>
   <g >
    <title >element:U$4</title>
    <g >
     <title >package:ADAFRUIT_3.5MM</title>
    </g>
   </g>
   <g >
    <title >element:X2</title>
    <g >
     <title >package:4UCONN_20329</title>
     <line  y1="17.0078" stroke-linecap="round" y2="17.0078" x1="35.8866" stroke="white" stroke-width="0.36" x2="33.6189"/>
     <line  y1="17.0078" stroke-linecap="round" y2="17.0078" x1="23.9811" stroke="white" stroke-width="0.36" x2="21.7134"/>
     <line  y1="4.25198" stroke-linecap="round" y2="1.70078" x1="39.5716" stroke="white" stroke-width="0.36" x2="39.5716"/>
     <line  y1="1.70078" stroke-linecap="round" y2="1.70078" x1="39.5716" stroke="white" stroke-width="0.36" x2="18.0284"/>
     <line  y1="1.70078" stroke-linecap="round" y2="4.25198" x1="18.0284" stroke="white" stroke-width="0.36" x2="18.0284"/>
    </g>
   </g>
  </g>
  <rect  gorn="0.2.0.2" id="connector0pin" width="2.83465" fill="#9A916C" stroke="none" stroke-width="0" rx="1.41732" height="2.83465" ry="1.41732" x="9.38268" y="16.4324"/>
  <rect  gorn="0.2.0.3" id="connector1pin" width="2.83465" fill="#9A916C" stroke="none" stroke-width="0" rx="1.41732" height="2.83465" ry="1.41732" x="48.6227" y="25.4324"/>
  <circle  gorn="0.2.0.4" id="connector2pin" fill="none" connectorname="GND" cx="14.4" cy="26.8497" r="1.96866" stroke="#9A916C" stroke-width="1.10268"/>
  <rect  width="3.93732" fill="none" stroke="#9A916C" stroke-width="1.10268" height="3.93732" x="12.4313" y="24.8811"/>
  <circle  gorn="0.2.0.6" id="connector3pin" fill="none" connectorname="ID" cx="21.6" cy="26.8497" r="1.96866" stroke="#9A916C" stroke-width="1.10268"/>
  <circle  gorn="0.2.0.7" id="connector4pin" fill="none" connectorname="D+" cx="28.8" cy="26.8497" r="1.96866" stroke="#9A916C" stroke-width="1.10268"/>
  <circle  gorn="0.2.0.8" id="connector5pin" fill="none" connectorname="D-" cx="36" cy="26.8497" r="1.96866" stroke="#9A916C" stroke-width="1.10268"/>
  <circle  gorn="0.2.0.9" id="connector6pin" fill="none" connectorname="VBUS" cx="43.2" cy="26.8497" r="1.96866" stroke="#9A916C" stroke-width="1.10268"/>
  <circle  gorn="0.2.0.10" id="connector7pin" fill="none" connectorname="P$1" cx="7.2" cy="8.84975" r="4.26331" stroke="#9A916C" stroke-width="1.44"/>
  <circle  gorn="0.2.0.11" id="connector8pin" fill="none" connectorname="P$1" cx="50.4" cy="8.84975" r="4.26331" stroke="#9A916C" stroke-width="1.44"/>
  <g transform="matrix(0, 1, -1, 0, 39.1465, -22.7055)">
   <g >
    <g >
     <g >
      <g >
       <g >
        <rect  gorn="0.2.0.12.0.0.0.0.0" id="connector9pin" width="5.66929" fill="#9A916C" stroke="none" stroke-width="0" height="2.83465" x="28.0913" y="6.80316"/>
       </g>
      </g>
     </g>
    </g>
   </g>
  </g>
  <g transform="matrix(0, 1, -1, 0, 34.8945, -18.4535)">
   <g >
    <g >
     <g >
      <g >
       <g >
        <rect  gorn="0.2.0.13.0.0.0.0.0" id="connector10pin" width="5.66929" fill="#9A916C" stroke="none" stroke-width="0" height="2.83465" x="23.8393" y="6.80316"/>
       </g>
      </g>
     </g>
    </g>
   </g>
  </g>
  <g transform="matrix(-1, 0, 0, -1, 57.6, 32.1732)">
   <g >
    <g >
     <g >
      <g >
       <g >
        <rect  gorn="0.2.0.14.0.0.0.0.0" id="connector11pin" width="1.13386" fill="#9A916C" stroke="none" stroke-width="0" height="3.82677" x="28.2331" y="14.1732"/>
       </g>
      </g>
     </g>
    </g>
   </g>
  </g>
  <g transform="matrix(-1, 0, 0, -1, 61.285, 32.1732)">
   <g >
    <g >
     <g >
      <g >
       <g >
        <rect  gorn="0.2.0.15.0.0.0.0.0" id="connector12pin" width="1.13386" fill="#9A916C" stroke="none" stroke-width="0" height="3.82677" x="30.0756" y="14.1732"/>
       </g>
      </g>
     </g>
    </g>
   </g>
  </g>
  <g transform="matrix(-1, 0, 0, -1, 50.2299, 32.1732)">
   <g >
    <g >
     <g >
      <g >
       <g >
        <rect  gorn="0.2.0.16.0.0.0.0.0" id="connector13pin" width="1.13386" fill="#9A916C" stroke="none" stroke-width="0" height="3.82677" x="24.548" y="14.1732"/>
       </g>
      </g>
     </g>
    </g>
   </g>
  </g>
  <g transform="matrix(-1, 0, 0, -1, 53.915, 32.1732)">
   <g >
    <g >
     <g >
      <g >
       <g >
        <rect  gorn="0.2.0.17.0.0.0.0.0" id="connector14pin" width="1.13386" fill="#9A916C" stroke="none" stroke-width="0" height="3.82677" x="26.3905" y="14.1732"/>
       </g>
      </g>
     </g>
    </g>
   </g>
  </g>
  <circle  gorn="0.2.0.18" id="connector15pin" fill="none" connectorname="GND" cx="38.1543" cy="16.4409" r="1.35212" stroke="#9A916C" stroke-width="0.72"/>
  <path  fill="#9A916C" stroke="none" stroke-width="0" d="m36.8022,15.0888,4.05638,0,0,2.70426,-4.05638,0,0,-2.70426M36.8022,16.4409a1.35212,1.35212,0,1,0,2.70426,0,1.35212,1.35212,0,1,0,-2.70426,0zz"/>
  <circle  gorn="0.2.0.20" id="connector16pin" fill="none" connectorname="GND" cx="19.4457" cy="16.4409" r="1.35212" stroke="#9A916C" stroke-width="0.72"/>
  <path  fill="#9A916C" stroke="none" stroke-width="0" d="m16.7414,15.0888,4.05638,0,0,2.70426,-4.05638,0,0,-2.70426M18.0935,16.4409a1.35212,1.35212,0,1,0,2.70426,0,1.35212,1.35212,0,1,0,-2.70426,0zz"/>
  <circle  gorn="0.2.0.22" id="connector17pin" fill="none" connectorname="GND" cx="39.0047" cy="8.50393" r="2.19685" stroke="#9A916C" stroke-width="2.69292"/>
  <rect  width="4.3937" fill="none" stroke="#9A916C" stroke-width="2.69292" height="4.39371" x="36.8078" y="6.30709"/>
  <circle  gorn="0.2.0.24" id="connector18pin" fill="none" connectorname="GND" cx="18.5953" cy="8.50393" r="2.19685" stroke="#9A916C" stroke-width="2.69292"/>
  <rect  width="4.3937" fill="none" stroke="#9A916C" stroke-width="2.69292" height="4.39371" x="16.3984" y="6.30709"/>
  <g transform="matrix(-1, 0, 0, -1, 64.9701, 32.1732)">
   <g >
    <g >
     <g >
      <g >
       <g >
        <rect  gorn="0.2.0.26.0.0.0.0.0" id="connector19pin" width="1.13386" fill="#9A916C" stroke="none" stroke-width="0" height="3.82677" x="31.9181" y="14.1732"/>
       </g>
      </g>
     </g>
    </g>
   </g>
  </g>
 </g>
 <g transform="matrix(1, 0, 0, 1, 46.23, 15.4812)">
  <g >
   <g >
    <g >
     <g >
      <g  gorn="0.2.1.0.0.0.0" id="adafruit_3.5mm">
       <path  fill="#DCDCDC" d="M9.77299,4.30601c-0.032,-0.2,-0.141,-0.257,-0.403,-0.341C9.171,3.901,7.83698,3.476,7.83698,3.476s-0.930002,-0.351,-1.619,0.146C6.125,3.688,6.029,3.765,5.932,3.846C6.014,3.749,6.09,3.653,6.156,3.56c0.495,-0.690001,0.143,-1.619,0.143,-1.619S5.872,0.607001,5.807,0.408c-0.0850003,-0.262,-0.142,-0.37,-0.342,-0.402S5.177,0.0600001,5.016,0.283C4.894,0.453001,4.077,1.59,4.077,1.59S3.456,2.367,3.716,3.176C3.75,3.285,3.793,3.4,3.841,3.517C3.774,3.409,3.706,3.308,3.638,3.215C3.135,2.531,2.142,2.579,2.142,2.579s-1.4,-0.00600001,-1.61,-0.00600001c-0.275,-0.001,-0.396,0.02,-0.488,0.201C-0.047,2.955,0.007,3.065,0.17,3.287c0.124,0.169,0.952999,1.297,0.952999,1.297s0.546,0.830003,1.395,0.833999c0.114,0,0.236,-0.00500001,0.362,-0.014c-0.122,0.03,-0.24,0.0640001,-0.348,0.1C1.726,5.77101,1.465,6.73001,1.465,6.73001S1.027,8.05998,0.961999,8.25899C0.876002,8.51999,0.859003,8.64203,1.002,8.78502c0.144,0.143,0.265,0.126,0.526,0.04C1.727,8.76003,3.056,8.31903,3.056,8.31903s0.958003,-0.263,1.224,-1.07c0.036,-0.108,0.069,-0.225,0.1,-0.348C4.371,7.02701,4.366,7.14901,4.367,7.26301c0.005,0.849003,0.835999,1.394,0.835999,1.394s1.13,0.827,1.298,0.950999C6.724,9.76998,6.834,9.82398,7.015,9.73203c0.181,-0.0920003,0.201,-0.213,0.2,-0.488001c-0.001,-0.21,-0.009,-1.61,-0.009,-1.61s0.047,-0.993003,-0.639,-1.495C6.475,6.07201,6.373,6.00401,6.266,5.93701c0.117,0.0470001,0.232,0.0900001,0.34,0.124C7.416,6.31901,8.19,5.69701,8.19,5.69701s1.136,-0.819001,1.306,-0.940998C9.71899,4.59501,9.80503,4.50701,9.77299,4.30601zM4.951,3.275C5.103,3.299,5.179,3.624,5.12,4.001S4.889,4.66301,4.736,4.63901S4.507,4.29001,4.567,3.914C4.626,3.537,4.798,3.251,4.951,3.275zM2.995,4.27401c0.07,-0.138,0.402,-0.11,0.742003,0.0630001C4.077,4.51001,4.295,4.76201,4.225,4.90001S3.823,5.01001,3.483,4.83701C3.143,4.66401,2.925,4.41201,2.995,4.27401zM4.026,6.15201c-0.269,0.27,-0.577,0.4,-0.686,0.291C3.231,6.33401,3.36,6.02701,3.63,5.75701c0.269,-0.27,0.576,-0.4,0.686,-0.291C4.425,5.57501,4.295,5.88201,4.026,6.15201zM5.51,6.78501c-0.138,0.0700001,-0.39,-0.148,-0.563,-0.487001c-0.174,-0.34,-0.203,-0.673001,-0.065,-0.742998s0.39,0.148,0.563,0.487001C5.618,6.38201,5.647,6.71401,5.51,6.78501zM5.867,5.21201C5.49,5.27201,5.166,5.19701,5.141,5.04401C5.117,4.89101,5.403,4.71901,5.779,4.65901c0.377,-0.0600001,0.701,0.015,0.725998,0.168C6.529,4.98001,6.244,5.15201,5.867,5.21201z"/>
      </g>
     </g>
    </g>
   </g>
  </g>
 </g>
 <g transform="matrix(1, 0, 0, 1, 17.4615, 1.26145)">
  <g >
   <g >
    <g >
     <g >
      <g  gorn="0.2.2.0.0.0.0" id="4uconn_20329">
       <g transform="matrix(-1, 0, 0, -1, 22.677, 16.654)">
        <g >
         <g >
          <g >
           <g >
            <g >
             <g >
              <rect  width="22.677" fill="#B4B4B4" height="3.969" x="0" y="7.15701"/>
              <rect  width="0.567" fill="#DCDCDC" height="3.402" x="11.055"/>
              <rect  width="0.567" fill="#DCDCDC" height="3.402" x="12.898" y="0"/>
              <rect  width="0.567" fill="#DCDCDC" height="3.402" x="14.74" y="0"/>
              <rect  width="0.567" fill="#DCDCDC" height="3.402" x="9.21298" y="0"/>
              <rect  width="0.567" fill="#DCDCDC" height="3.402" x="7.36999" y="0"/>
              <rect  width="14.173" fill="#B4B4B4" height="0.709001" x="4.252" y="1.489"/>
              <rect  width="14.173" height="2.976" x="4.252" y="1.771"/>
              <polygon  fill="#DCDCDC" points="17.008,1.347,17.008,3.473,14.74,3.473,14.74,4.182,13.323,4.182,13.323,1.63,9.35402,1.63,9.35402,4.182,7.93699,4.182,7.93699,3.473,5.669,3.473,5.669,1.347,0.567,1.347,0.567,14.953,22.11,14.953,22.11,1.347"/>
              <polygon  points="5.811,12.119,3.827,12.119,4.11,7.86702,5.527,7.86702"/>
              <polygon  points="18.85,12.119,16.866,12.119,17.149,7.86702,18.567,7.86702"/>
              <polygon  fill="#F0F0F0" points="20.976,16.654,1.701,16.653,1.134,14.953,21.543,14.953"/>
              <polygon  fill="#B4B4B4" points="0.567,16.653,0,16.653,0.567,14.953,1.134,14.953"/>
              <polygon  fill="#B4B4B4" points="22.677,16.654,22.11,16.654,21.543,14.953,22.11,14.953"/>
             </g>
            </g>
           </g>
          </g>
         </g>
        </g>
       </g>
      </g>
     </g>
    </g>
   </g>
  </g>
 </g>
</g>
</g></g></g><g partID='854137530'><line stroke-linecap='round' stroke='#000000' x1='69.0996' y1='110.8' x2='69.0998' y2='89.2' stroke-width='3.2' /><line stroke-linecap='round' stroke='#404040' x1='69.0996' y1='110.8' x2='69.0998' y2='89.2' stroke-width='1.6' /></g><g partID='854137600'><line stroke-linecap='round' stroke='#ad6a38' x1='61.8996' y1='110.8' x2='61.8998' y2='89.2' stroke-width='3.2' /><line stroke-linecap='round' stroke='#ef6100' x1='61.8996' y1='110.8' x2='61.8998' y2='89.2' stroke-width='1.6' /></g><g partID='854137670'><line stroke-linecap='round' stroke='#ad6a38' x1='54.6996' y1='110.8' x2='54.6999' y2='89.2' stroke-width='3.2' /><line stroke-linecap='round' stroke='#ef6100' x1='54.6996' y1='110.8' x2='54.6999' y2='89.2' stroke-width='1.6' /></g><g partID='854137740'><line stroke-linecap='round' stroke='#d6d63a' x1='47.4996' y1='110.8' x2='47.4999' y2='89.2' stroke-width='3.2' /><line stroke-linecap='round' stroke='#fff800' x1='47.4996' y1='110.8' x2='47.4999' y2='89.2' stroke-width='1.6' /></g><g partID='854137810'><line stroke-linecap='round' stroke='#8c0000' x1='40.2996' y1='110.8' x2='40.2999' y2='89.2' stroke-width='3.2' /><line stroke-linecap='round' stroke='#cc1414' x1='40.2996' y1='110.8' x2='40.2999' y2='89.2' stroke-width='1.6' /></g><g partID='854138090'><line stroke-linecap='round' stroke='#8c0000' x1='40.4236' y1='103.584' x2='33.2395' y2='103.584' stroke-width='3.2' /><line stroke-linecap='round' stroke='#cc1414' x1='40.4236' y1='103.584' x2='33.2395' y2='103.584' stroke-width='1.6' /></g><g partID='854137990'><line stroke-linecap='round' stroke='#8c0000' x1='33.2396' y1='103.584' x2='33.0997' y2='89.2' stroke-width='3.2' /><line stroke-linecap='round' stroke='#cc1414' x1='33.2396' y1='103.584' x2='33.0997' y2='89.2' stroke-width='1.6' /></g><g partID='854137880'><line stroke-linecap='round' stroke='#8c0000' x1='40.2996' y1='110.8' x2='40.4239' y2='103.584' stroke-width='3.2' /><line stroke-linecap='round' stroke='#cc1414' x1='40.2996' y1='110.8' x2='40.4239' y2='103.584' stroke-width='1.6' /></g></svg>