<?xml version="1.0" encoding="UTF-8"?>
<svg xmlns="http://www.w3.org/2000/svg" xmlns:xlink="http://www.w3.org/1999/xlink" width="500pt" height="597pt" viewBox="0 0 500 597" version="1.1">
<g id="surface1">
<path style=" stroke:none;fill-rule:nonzero;fill:rgb(94.901961%,94.901961%,94.901961%);fill-opacity:1;" d="M 249.378906 409.046875 C 259.59375 408.804688 276.097656 408.597656 295.484375 408.898438 C 354.886719 406.445312 357.574219 404.554688 249.378906 409.046875 "/>
<path style=" stroke:none;fill-rule:nonzero;fill:rgb(94.901961%,94.901961%,94.901961%);fill-opacity:1;" d="M 248.054688 409.101562 C 248.5 409.078125 248.929688 409.066406 249.378906 409.046875 C 236.359375 409.347656 233.535156 409.703125 248.054688 409.101562 "/>
<path style=" stroke:none;fill-rule:nonzero;fill:rgb(94.901961%,94.901961%,94.901961%);fill-opacity:1;" d="M 459.757812 463.859375 C 459.757812 458.703125 465.125 434.855469 439.347656 427.664062 C 407.933594 413.507812 343.085938 409.648438 295.484375 408.898438 C 258.417969 410.433594 199.3125 412.1875 131.261719 412.75 C 117.355469 412.871094 76.875 428.703125 43.585938 450.753906 C 35.125 456.359375 29.125 469.085938 33.601562 479.078125 C 32.511719 482.320312 30.695312 483.617188 30.695312 487.222656 C 30.695312 501.308594 40.144531 510.539062 52.820312 515.152344 C 52.679688 516.171875 56.101562 524.949219 56.898438 525.628906 C 95.914062 558.792969 114.660156 551.941406 116.300781 551.8125 C 119.855469 566.125 143.089844 570.429688 152.402344 560.535156 C 161.140625 572.179688 191.355469 568.460938 199.570312 562.285156 C 207.738281 570.238281 221.746094 574.503906 236.851562 574.503906 C 251.585938 574.503906 264.152344 566.441406 272.367188 558.792969 C 283.433594 566.355469 318.957031 569.265625 337.398438 553.0625 C 343.621094 555.339844 388.804688 547.730469 393.496094 526.789062 C 412 525.144531 427.175781 516.324219 431.351562 500.605469 C 442.292969 497.328125 459.757812 481.667969 459.757812 463.859375 "/>
<path style="fill:none;stroke-width:1.027;stroke-linecap:butt;stroke-linejoin:miter;stroke:rgb(19.215686%,21.960784%,21.568627%);stroke-opacity:1;stroke-miterlimit:10;" d="M 0.000429 0.000466687 C -0.459677 -0.482888 -0.588865 -1.129349 -0.124783 -1.569937 C 0.33731 -2.01152 0.976292 -1.852391 1.437392 -1.368043 C 1.896504 -0.884688 2.024698 -0.239221 1.56161 0.202362 C 1.098523 0.64295 0.459542 0.482826 0.000429 0.000466687 Z M 1.65701 3.837464 C 1.945198 4.138815 2.390398 4.175613 2.69846 3.882219 C 3.006523 3.587831 2.991617 3.142269 2.704423 2.839924 L 1.520867 1.597724 C 1.85576 1.57286 2.219473 1.497274 2.668648 1.067625 C 3.581904 0.199378 3.488492 -1.312347 2.48381 -2.365582 C 1.480123 -3.419812 -0.0244147 -3.587892 -0.936677 -2.717655 C -1.333183 -2.340718 -1.493177 -1.970744 -1.453427 -1.457553 C -1.680002 -1.549052 -2.00794 -1.569937 -2.263333 -1.32826 C -2.57239 -1.033872 -2.55649 -0.587316 -2.269296 -0.284971 Z M 1.65701 3.837464 " transform="matrix(3.930818,0,0,-3.927632,51.545189,486.478395)"/>
<path style="fill:none;stroke-width:1.027;stroke-linecap:butt;stroke-linejoin:miter;stroke:rgb(19.215686%,21.960784%,21.568627%);stroke-opacity:1;stroke-miterlimit:10;" d="M -0.00028975 0.000396838 C 0.183554 0.267932 0.186535 0.928318 -0.27854 1.248565 C -0.744609 1.568812 -1.35974 1.328129 -1.543584 1.059599 Z M -2.106046 0.242074 C -2.278959 -0.00954872 -2.372371 -0.553571 -1.607184 -1.078697 C -1.01789 -1.483481 -0.401765 -1.355183 -0.126496 -1.544149 C 0.140823 -1.728142 0.229266 -2.092149 0.0185915 -2.398473 C -0.379902 -2.979293 -1.61414 -2.693856 -2.516465 -2.075242 C -3.80039 -1.19307 -3.946471 0.312687 -3.122652 1.514111 C -2.334609 2.660834 -0.778396 3.076559 0.44491 2.237154 C 1.62151 1.427585 1.702004 -0.0781731 0.988491 -1.117484 C 0.69931 -1.538181 0.431991 -1.500388 0.0503915 -1.237826 Z M -2.106046 0.242074 " transform="matrix(3.930818,0,0,-3.927632,76.684733,504.079684)"/>
<path style="fill:none;stroke-width:1.027;stroke-linecap:butt;stroke-linejoin:miter;stroke:rgb(19.215686%,21.960784%,21.568627%);stroke-opacity:1;stroke-miterlimit:10;" d="M 0.00006025 0.000240389 C -0.308002 -0.59152 -0.251358 -1.247928 0.316073 -1.542316 C 0.88251 -1.836705 1.451929 -1.505518 1.759992 -0.913757 C 2.06706 -0.321996 2.01141 0.334411 1.443979 0.627805 C 0.875554 0.923188 0.308123 0.592001 0.00006025 0.000240389 Z M 2.227054 -3.150513 C 2.03526 -3.521483 1.617885 -3.680612 1.239267 -3.48369 C 0.927229 -3.321577 0.839779 -3.006303 0.852698 -2.760647 C 0.380667 -2.964531 -0.0208085 -2.934695 -0.505758 -2.683072 C -1.624721 -2.102251 -1.953652 -0.625335 -1.282871 0.666593 C -0.61209 1.957527 0.785123 2.537353 1.904085 1.955538 C 2.389035 1.703915 2.646417 1.393614 2.749767 0.890368 C 2.94156 1.040546 3.250617 1.151936 3.562654 0.989824 C 3.942267 0.792902 4.050585 0.36027 3.858792 -0.00970517 Z M 2.227054 -3.150513 " transform="matrix(3.930818,0,0,-3.927632,88.402107,513.438444)"/>
<path style="fill:none;stroke-width:1.027;stroke-linecap:butt;stroke-linejoin:miter;stroke:rgb(19.215686%,21.960784%,21.568627%);stroke-opacity:1;stroke-miterlimit:10;" d="M -0.00003975 -0.000106178 C -0.594302 0.236598 -1.126952 -0.14929 -1.374396 -0.768898 C -1.634759 -1.423316 -1.506565 -2.051875 -0.913296 -2.28858 C -0.319034 -2.526279 0.20666 -2.157298 0.468016 -1.50288 C 0.71546 -0.884267 0.594223 -0.236811 -0.00003975 -0.000106178 Z M 1.076191 -3.87987 C 0.393485 -5.59349 -0.983852 -5.792401 -2.300571 -5.267275 C -2.998184 -4.9888 -4.198634 -4.200117 -3.908459 -3.469118 C -3.788215 -3.166773 -3.380777 -2.999687 -3.115446 -3.107099 C -2.727884 -3.261256 -2.636459 -3.756545 -1.853384 -4.068835 C -1.01764 -4.402012 -0.558527 -4.076792 -0.260402 -3.327891 L -0.277296 -3.320929 C -0.735415 -3.617307 -1.258127 -3.527797 -1.706309 -3.349771 C -3.00514 -2.831607 -3.200909 -1.446191 -2.715959 -0.232832 C -2.177346 1.117775 -0.844727 1.832861 0.32591 1.366414 C 0.832723 1.163524 1.119916 0.880076 1.272954 0.38976 C 1.449841 0.558834 1.745979 0.700061 2.072923 0.569774 C 2.468435 0.41164 2.621473 -0.00806263 2.466448 -0.394945 Z M 1.076191 -3.87987 " transform="matrix(3.930818,0,0,-3.927632,114.9025,520.507395)"/>
<path style="fill:none;stroke-width:1.027;stroke-linecap:butt;stroke-linejoin:miter;stroke:rgb(19.215686%,21.960784%,21.568627%);stroke-opacity:1;stroke-miterlimit:10;" d="M 0.00002275 -0.000311873 C 0.130204 0.395521 0.515779 0.621286 0.921229 0.488015 C 1.324692 0.354745 1.503567 -0.0540179 1.374379 -0.449851 L -0.397477 -5.856258 C -0.525671 -6.252092 -0.91224 -6.476861 -1.316696 -6.343591 C -1.72314 -6.211315 -1.900027 -5.801558 -1.77084 -5.405724 Z M 0.00002275 -0.000311873 " transform="matrix(3.930818,0,0,-3.927632,131.238192,515.2644)"/>
<path style="fill:none;stroke-width:1.027;stroke-linecap:butt;stroke-linejoin:miter;stroke:rgb(19.215686%,21.960784%,21.568627%);stroke-opacity:1;stroke-miterlimit:10;" d="M -0.000471 -0.00036606 C 0.0839978 0.312919 -0.13264 0.936506 -0.680196 1.0837 C -1.225765 1.2299 -1.725621 0.797268 -1.81009 0.483983 Z M -2.065483 -0.474769 C -2.144983 -0.770152 -2.049583 -1.314175 -1.154215 -1.552868 C -0.464552 -1.737856 0.0730665 -1.411641 0.396035 -1.498168 C 0.71006 -1.58171 0.913779 -1.894995 0.817385 -2.253036 C 0.635529 -2.934307 -0.620571 -3.077523 -1.678915 -2.795069 C -3.184446 -2.393268 -3.824421 -1.020781 -3.44779 0.384527 C -3.089046 1.728172 -1.761396 2.64018 -0.327415 2.256282 C 1.05191 1.888296 1.630273 0.494923 1.304323 -0.723408 C 1.172154 -1.215714 0.907817 -1.270414 0.459635 -1.150073 Z M -2.065483 -0.474769 " transform="matrix(3.930818,0,0,-3.927632,149.111226,534.455594)"/>
<path style="fill:none;stroke-width:1.027;stroke-linecap:butt;stroke-linejoin:miter;stroke:rgb(19.215686%,21.960784%,21.568627%);stroke-opacity:1;stroke-miterlimit:10;" d="M -0.000371 0.000224727 C -0.12459 -0.655188 0.115898 -1.26684 0.742954 -1.387181 C 1.371004 -1.506528 1.820179 -1.027152 1.946385 -0.371739 C 2.070604 0.282679 1.830116 0.894331 1.202066 1.013677 C 0.57501 1.134019 0.124841 0.654643 -0.000371 0.000224727 Z M -0.683077 4.117687 C -0.603577 4.527444 -0.250796 4.798958 0.166579 4.719393 C 0.585941 4.638834 0.81351 4.25593 0.735004 3.847168 L 0.414023 2.165373 C 0.709166 2.325497 1.054991 2.456778 1.66416 2.340415 C 2.900385 2.103711 3.637748 0.783935 3.36546 -0.644248 C 3.092179 -2.071436 1.91856 -3.025215 0.683329 -2.788511 C 0.14571 -2.687066 -0.18819 -2.462296 -0.431659 -2.009773 C -0.572771 -2.208684 -0.837109 -2.403617 -1.182934 -2.337977 C -1.601302 -2.258412 -1.828871 -1.874514 -1.751359 -1.465751 Z M -0.683077 4.117687 " transform="matrix(3.930818,0,0,-3.927632,163.548333,539.832914)"/>
<path style="fill:none;stroke-width:1.027;stroke-linecap:butt;stroke-linejoin:miter;stroke:rgb(19.215686%,21.960784%,21.568627%);stroke-opacity:1;stroke-miterlimit:10;" d="M -0.00015225 0.000134526 C -0.0826335 -0.663234 0.197604 -1.257979 0.83261 -1.336549 C 1.467616 -1.416113 1.886979 -0.907895 1.96946 -0.244526 C 2.051941 0.416854 1.77071 1.012593 1.135704 1.092157 C 0.500698 1.170727 0.082329 0.661514 -0.00015225 0.000134526 Z M 3.404435 -0.423546 C 3.224566 -1.867642 2.114548 -2.898002 0.661685 -2.716993 C -0.792171 -2.536978 -1.614996 -1.265935 -1.436121 0.17816 C -1.256252 1.62325 -0.146234 2.652616 1.306629 2.471606 C 2.761479 2.290597 3.584304 1.020549 3.404435 -0.423546 Z M 3.404435 -0.423546 " transform="matrix(3.930818,0,0,-3.927632,185.785755,543.570841)"/>
<path style="fill:none;stroke-width:1.027;stroke-linecap:butt;stroke-linejoin:miter;stroke:rgb(19.215686%,21.960784%,21.568627%);stroke-opacity:1;stroke-miterlimit:10;" d="M 0.000479 -0.000331806 C -0.0412585 -0.66569 0.275748 -1.241538 0.914729 -1.28132 C 1.552716 -1.320108 1.938291 -0.787026 1.979035 -0.120673 C 2.019779 0.544685 1.701779 1.120533 1.062798 1.160315 C 0.425804 1.199103 0.0412227 0.666021 0.000479 -0.000331806 Z M 3.312648 -1.974526 C 3.287804 -2.391245 2.971791 -2.705524 2.54746 -2.679666 C 2.194679 -2.65878 1.987979 -2.405168 1.898541 -2.177415 C 1.551723 -2.555346 1.17211 -2.688617 0.626541 -2.655797 C -0.630552 -2.579216 -1.53089 -1.363868 -1.442446 0.0881837 C -1.354002 1.540236 -0.311559 2.636236 0.944541 2.559656 C 1.49011 2.525841 1.850841 2.345826 2.14996 1.929107 C 2.266229 2.144926 2.501748 2.371685 2.853535 2.349804 C 3.27886 2.323946 3.555123 1.972868 3.529285 1.557143 Z M 3.312648 -1.974526 " transform="matrix(3.930818,0,0,-3.927632,208.138742,545.889322)"/>
<path style="fill:none;stroke-width:1.027;stroke-linecap:butt;stroke-linejoin:miter;stroke:rgb(19.215686%,21.960784%,21.568627%);stroke-opacity:1;stroke-miterlimit:10;" d="M 0.0000415 -0.000102492 C 0.0040165 0.416617 0.304129 0.746809 0.730448 0.742831 C 1.119004 0.738853 1.35651 0.48723 1.447935 0.2734 C 1.691404 0.557843 2.046173 0.82339 2.45361 0.819412 C 2.824279 0.815434 3.190973 0.515078 3.187991 0.0605654 C 3.183023 -0.438702 2.802416 -0.556059 2.27076 -0.708226 C 1.640723 -0.887247 1.435016 -1.052343 1.42806 -1.792293 L 1.410173 -3.551662 C 1.406198 -3.969376 1.106085 -4.299569 0.68076 -4.294596 C 0.254441 -4.291612 -0.0387148 -3.955452 -0.0347398 -3.537739 Z M 0.0000415 -0.000102492 " transform="matrix(3.930818,0,0,-3.927632,226.226399,539.812097)"/>
<path style="fill:none;stroke-width:1.027;stroke-linecap:butt;stroke-linejoin:miter;stroke:rgb(19.215686%,21.960784%,21.568627%);stroke-opacity:1;stroke-miterlimit:10;" d="M 0.00033525 -0.0000994774 C 0.0261727 -0.667447 0.399823 -1.208485 1.038804 -1.183621 C 1.678779 -1.157763 2.008704 -0.587882 1.981873 0.0784705 C 1.956035 0.744823 1.582385 1.286856 0.94241 1.261992 C 0.304423 1.236134 -0.026496 0.667248 0.00033525 -0.0000994774 Z M 3.497341 -1.634155 C 3.514235 -2.04988 3.230023 -2.395985 2.804698 -2.412893 C 2.451916 -2.425822 2.221366 -2.19409 2.109073 -1.976282 C 1.802004 -2.387034 1.437298 -2.559092 0.890735 -2.580973 C -0.36934 -2.629706 -1.387934 -1.51083 -1.443584 -0.0567892 C -1.502215 1.397252 -0.575046 2.592708 0.684035 2.643431 C 1.305129 2.6673 1.627104 2.485296 1.895416 2.283401 L 1.826848 3.996027 C 1.810948 4.412746 2.094166 4.757857 2.521479 4.774764 C 2.94581 4.791672 3.25586 4.47043 3.27176 4.052717 Z M 3.497341 -1.634155 " transform="matrix(3.930818,0,0,-3.927632,246.041651,546.702734)"/>
<path style="fill:none;stroke-width:1.027;stroke-linecap:butt;stroke-linejoin:miter;stroke:rgb(19.215686%,21.960784%,21.568627%);stroke-opacity:1;stroke-miterlimit:10;" d="M 0.00012275 -0.00020668 C 0.643079 0.0843306 1.723285 0.038581 1.82266 -0.723249 C 1.874335 -1.109137 1.653723 -1.428389 1.322804 -1.471155 C 0.95611 -1.518894 0.822948 -1.29313 0.263467 -1.366727 C -0.462965 -1.462204 -0.730283 -2.057943 -0.643827 -2.720318 C -0.557371 -3.380703 -0.135027 -3.885937 0.498985 -3.803389 C 1.114117 -3.721836 1.365535 -3.437393 1.577204 -3.40855 C 1.908123 -3.365785 2.209229 -3.663157 2.248979 -3.966496 C 2.343385 -4.682577 1.249267 -5.106258 0.679848 -5.180849 C -0.771027 -5.371804 -1.887008 -4.350395 -2.075821 -2.908289 C -2.265627 -1.465188 -1.451746 -0.191161 0.00012275 -0.00020668 Z M 0.00012275 -0.00020668 " transform="matrix(3.930818,0,0,-3.927632,283.737799,533.350751)"/>
<path style="fill:none;stroke-width:1.027;stroke-linecap:butt;stroke-linejoin:miter;stroke:rgb(19.215686%,21.960784%,21.568627%);stroke-opacity:1;stroke-miterlimit:10;" d="M -0.00045225 0.000408312 C 0.126748 -0.655004 0.57791 -1.13438 1.204966 -1.013044 C 1.833016 -0.891709 2.07251 -0.279062 1.946304 0.375356 C 1.820098 1.029774 1.368935 1.50915 0.741879 1.387814 C 0.113829 1.267473 -0.125665 0.654826 -0.00045225 0.000408312 Z M 3.365379 0.648859 C 3.640648 -0.779324 2.905273 -2.100094 1.469304 -2.376581 C 0.0313477 -2.654062 -1.143265 -1.702272 -1.41754 -0.274089 C -1.692809 1.154093 -0.958427 2.474864 0.478535 2.752345 C 1.916491 3.028832 3.09011 2.077041 3.365379 0.648859 Z M 3.365379 0.648859 " transform="matrix(3.930818,0,0,-3.927632,300.036934,541.185197)"/>
<path style="fill:none;stroke-width:1.027;stroke-linecap:butt;stroke-linejoin:miter;stroke:rgb(19.215686%,21.960784%,21.568627%);stroke-opacity:1;stroke-miterlimit:10;" d="M 0.000279 -0.000422593 C -0.114002 0.401378 0.0787852 0.803179 0.48821 0.919542 C 0.862854 1.027948 1.162966 0.853901 1.312029 0.673886 C 1.435254 1.084638 1.853623 1.406874 2.353479 1.55009 C 2.752966 1.665459 3.347229 1.680377 3.808329 1.34919 C 4.06571 1.693306 4.392654 2.1329 4.989898 2.303964 C 5.951848 2.580451 6.861129 2.299986 7.187079 1.15923 L 7.924442 -1.41667 C 8.038723 -1.817477 7.845935 -2.220272 7.435516 -2.336635 C 7.025098 -2.453993 6.648466 -2.215299 6.534185 -1.814493 L 5.904148 0.387454 C 5.778935 0.824064 5.42516 1.156246 4.970023 1.025959 C 4.515879 0.895672 4.389673 0.426242 4.514885 -0.0103682 L 5.143929 -2.211321 C 5.259204 -2.612127 5.065423 -3.014922 4.655004 -3.13228 C 4.244585 -3.248643 3.867954 -3.009949 3.753673 -2.609143 L 3.123635 -0.408191 C 2.999416 0.0294141 2.644648 0.360601 2.188516 0.231309 C 1.735366 0.101022 1.60916 -0.369403 1.734373 -0.806013 L 2.363416 -3.005971 C 2.478691 -3.406777 2.28491 -3.809573 1.875485 -3.92693 C 1.465066 -4.044288 1.088435 -3.8046 0.974154 -3.403794 Z M 0.000279 -0.000422593 " transform="matrix(3.930818,0,0,-3.927632,315.514528,531.18584)"/>
<path style="fill:none;stroke-width:1.027;stroke-linecap:butt;stroke-linejoin:miter;stroke:rgb(19.215686%,21.960784%,21.568627%);stroke-opacity:1;stroke-miterlimit:10;" d="M 0.0004915 0.000306553 C -0.249933 0.617926 -0.783577 1.001825 -1.376846 0.763131 C -1.970115 0.524438 -2.088371 -0.123018 -1.83894 -0.740638 C -1.588515 -1.360246 -1.054871 -1.744145 -0.461602 -1.505451 C 0.130673 -1.265763 0.248929 -0.619302 0.0004915 0.000306553 Z M -3.841346 0.359341 C -3.996371 0.746224 -3.846315 1.165926 -3.450802 1.325055 C -3.123858 1.457331 -2.827721 1.316104 -2.64984 1.148024 C -2.49879 1.639335 -2.213583 1.923778 -1.706771 2.127662 C -0.539115 2.599082 0.796485 1.888969 1.340067 0.540351 C 1.883648 -0.809262 1.414598 -2.246396 0.245948 -2.716821 C -0.329433 -2.948552 -0.69414 -2.88689 -1.015121 -2.78644 L -0.428808 -4.238492 C -0.27279 -4.625374 -0.422846 -5.044082 -0.818358 -5.204206 C -1.213871 -5.363335 -1.613358 -5.165418 -1.770371 -4.777541 Z M -3.841346 0.359341 " transform="matrix(3.930818,0,0,-3.927632,361.943381,523.173079)"/>
<path style="fill:none;stroke-width:1.027;stroke-linecap:butt;stroke-linejoin:miter;stroke:rgb(19.215686%,21.960784%,21.568627%);stroke-opacity:1;stroke-miterlimit:10;" d="M 0.0003165 -0.0000111189 C 0.31136 -0.590777 0.879785 -0.919976 1.447216 -0.622603 C 2.013654 -0.326226 2.067316 0.330182 1.757266 0.920948 C 1.447216 1.511714 0.876804 1.840912 0.31136 1.54354 C -0.256071 1.247162 -0.309734 0.590755 0.0003165 -0.0000111189 Z M 3.859048 0.0238582 C 4.053823 -0.345122 3.94451 -0.777754 3.567879 -0.976665 C 3.255841 -1.139772 2.946785 -1.030371 2.753998 -0.880193 C 2.650648 -1.384433 2.396248 -1.694735 1.912291 -1.949341 C 0.795316 -2.535135 -0.603884 -1.960281 -1.279634 -0.671336 C -1.956377 0.617608 -1.632415 2.095519 -0.516434 2.681312 C -0.0314835 2.934924 0.370985 2.96675 0.843016 2.764855 C 0.830098 3.008521 0.914566 3.325785 1.227598 3.488892 C 1.604229 3.687803 2.021604 3.528674 2.216379 3.159694 Z M 3.859048 0.0238582 " transform="matrix(3.930818,0,0,-3.927632,375.428443,516.988238)"/>
<path style="fill:none;stroke-width:1.027;stroke-linecap:butt;stroke-linejoin:miter;stroke:rgb(19.215686%,21.960784%,21.568627%);stroke-opacity:1;stroke-miterlimit:10;" d="M 0.000304 0.000445581 L -0.138821 -0.0920481 C -0.526384 -0.346655 -0.886121 -0.339693 -1.140521 0.0471897 C -1.395915 0.434072 -1.259771 0.767248 -0.873202 1.021855 L -0.733084 1.114348 L -1.253809 1.903031 C -1.482371 2.251126 -1.418771 2.692709 -1.062015 2.927424 C -0.707246 3.162139 -0.275959 3.045776 -0.047396 2.697682 L 0.474323 1.908999 L 0.806235 2.127801 C 1.19181 2.383402 1.552541 2.375446 1.806941 1.988563 C 2.062335 1.601681 1.927185 1.268505 1.539623 1.013898 L 1.206716 0.795096 L 2.801685 -1.625654 C 3.031241 -1.974743 2.967641 -2.41732 2.610885 -2.651041 C 2.256116 -2.884762 1.824829 -2.770388 1.596266 -2.421299 Z M 0.000304 0.000445581 " transform="matrix(3.930818,0,0,-3.927632,390.311305,503.540813)"/>
<path style="fill:none;stroke-width:1.027;stroke-linecap:butt;stroke-linejoin:miter;stroke:rgb(19.215686%,21.960784%,21.568627%);stroke-opacity:1;stroke-miterlimit:10;" d="M 0.00016025 -0.000216898 C -0.255234 0.329976 -0.224427 0.774542 0.114441 1.036111 C 0.451323 1.29569 0.889566 1.213142 1.14496 0.882949 L 3.308354 -1.91971 C 3.562754 -2.250897 3.530954 -2.696459 3.193079 -2.957032 C 2.855204 -3.216611 2.41696 -3.134063 2.161566 -2.803871 Z M -1.199296 2.738791 C -0.824652 3.027212 -0.285046 2.96356 0.0100977 2.582645 C 0.304248 2.200736 0.227729 1.661686 -0.145921 1.37426 C -0.520565 1.084844 -1.062159 1.148495 -1.355315 1.530405 C -1.650459 1.91132 -1.57394 2.450369 -1.199296 2.738791 Z M -1.199296 2.738791 " transform="matrix(3.930818,0,0,-3.927632,399.151714,494.452273)"/>
<path style="fill:none;stroke-width:1.027;stroke-linecap:butt;stroke-linejoin:miter;stroke:rgb(19.215686%,21.960784%,21.568627%);stroke-opacity:1;stroke-miterlimit:10;" d="M -0.000046 -0.000403414 C 0.470991 -0.471823 1.112954 -0.617028 1.566104 -0.166494 C 2.019254 0.286029 1.87516 0.928512 1.404123 1.400926 C 0.933085 1.874335 0.290129 2.017551 -0.162027 1.566022 C -0.615177 1.115489 -0.472077 0.473005 -0.000046 -0.000403414 Z M -3.79319 1.753994 C -4.08734 2.050371 -4.113177 2.494938 -3.812071 2.796288 C -3.509971 3.097639 -3.062784 3.070786 -2.769627 2.775403 L -1.55924 1.562044 C -1.525452 1.896215 -1.438996 2.256244 -0.999759 2.694844 C -0.107371 3.584971 1.399154 3.451701 2.427685 2.422335 C 3.455223 1.391975 3.585404 -0.115772 2.692023 -1.0059 C 2.305454 -1.391787 1.931804 -1.541965 1.420023 -1.489254 C 1.505485 -1.718996 1.518404 -2.046205 1.268973 -2.294844 C 0.966873 -2.596195 0.520679 -2.569342 0.226529 -2.273959 Z M -3.79319 1.753994 " transform="matrix(3.930818,0,0,-3.927632,415.968931,489.510134)"/>
<path style="fill:none;stroke-width:1.027;stroke-linecap:butt;stroke-linejoin:miter;stroke:rgb(19.215686%,21.960784%,21.568627%);stroke-opacity:1;stroke-miterlimit:10;" d="M 0.0003165 -0.000458774 C -0.338552 0.244202 -0.436934 0.679818 -0.186509 1.024929 C 0.061929 1.372029 0.506135 1.416784 0.845004 1.173117 L 5.463954 -2.151684 C 5.801829 -2.396344 5.899216 -2.83196 5.649785 -3.178066 C 5.401348 -3.524171 4.957141 -3.569921 4.618273 -3.326254 Z M 0.0003165 -0.000458774 " transform="matrix(3.930818,0,0,-3.927632,415.615943,467.154448)"/>
<path style="fill:none;stroke-width:1.027;stroke-linecap:butt;stroke-linejoin:miter;stroke:rgb(19.215686%,21.960784%,21.568627%);stroke-opacity:1;stroke-miterlimit:10;" d="M -0.000146 0.0000377085 C -0.297277 0.130325 -0.946196 0.00998327 -1.172771 -0.507186 C -1.40034 -1.024355 -1.048552 -1.583296 -0.752415 -1.713582 Z M 0.155873 -2.112399 C 0.43611 -2.23473 0.986648 -2.22379 1.360298 -1.375433 C 1.647491 -0.723005 1.405016 -0.141189 1.540166 0.164139 C 1.670348 0.460517 2.01021 0.614673 2.350073 0.466485 C 2.995016 0.183036 2.946323 -1.081045 2.506091 -2.081568 C 1.881023 -3.506767 0.430148 -3.932437 -0.902471 -3.347638 C -2.175465 -2.788698 -2.874071 -1.338635 -2.277821 0.0179397 C -1.705421 1.324786 -0.240634 1.684816 0.91311 1.177592 C 1.379179 0.972714 1.393091 0.705178 1.206266 0.279508 Z M 0.155873 -2.112399 " transform="matrix(3.930818,0,0,-3.927632,438.156824,454.453273)"/>
<path style=" stroke:none;fill-rule:nonzero;fill:rgb(64.313725%,48.627451%,12.156863%);fill-opacity:1;" d="M 51.546875 486.476562 C 49.738281 488.375 49.230469 490.914062 51.054688 492.644531 C 52.871094 494.378906 55.382812 493.753906 57.195312 491.851562 C 59 489.953125 59.503906 487.417969 57.683594 485.683594 C 55.863281 483.953125 53.351562 484.582031 51.546875 486.476562 M 58.058594 471.40625 C 59.191406 470.222656 60.941406 470.078125 62.152344 471.230469 C 63.363281 472.386719 63.304688 474.136719 62.175781 475.324219 L 57.523438 480.203125 C 58.839844 480.300781 60.269531 480.597656 62.035156 482.285156 C 65.625 485.695312 65.257812 491.632812 61.308594 495.769531 C 57.363281 499.910156 51.449219 500.570312 47.863281 497.152344 C 46.304688 495.671875 45.675781 494.21875 45.832031 492.203125 C 44.941406 492.5625 43.652344 492.644531 42.648438 491.695312 C 41.433594 490.539062 41.496094 488.785156 42.625 487.597656 Z M 58.058594 471.40625 "/>
<path style=" stroke:none;fill-rule:nonzero;fill:rgb(64.313725%,48.627451%,12.156863%);fill-opacity:1;" d="M 76.683594 504.078125 C 77.40625 503.027344 77.417969 500.433594 75.589844 499.175781 C 73.757812 497.917969 71.339844 498.863281 70.617188 499.917969 Z M 68.40625 503.128906 C 67.726562 504.117188 67.359375 506.253906 70.367188 508.316406 C 72.683594 509.90625 75.105469 509.402344 76.1875 510.144531 C 77.238281 510.867188 77.585938 512.296875 76.757812 513.5 C 75.191406 515.78125 70.339844 514.660156 66.792969 512.230469 C 61.746094 508.765625 61.171875 502.851562 64.410156 498.132812 C 67.507812 493.628906 73.625 491.996094 78.433594 495.292969 C 83.058594 498.472656 83.375 504.386719 80.570312 508.46875 C 79.433594 510.121094 78.382812 509.972656 76.882812 508.941406 Z M 68.40625 503.128906 "/>
<path style=" stroke:none;fill-rule:nonzero;fill:rgb(64.313725%,48.627451%,12.156863%);fill-opacity:1;" d="M 88.402344 513.4375 C 87.191406 515.761719 87.414062 518.339844 89.644531 519.496094 C 91.871094 520.652344 94.109375 519.351562 95.320312 517.027344 C 96.527344 514.703125 96.308594 512.125 94.078125 510.972656 C 91.84375 509.8125 89.613281 511.113281 88.402344 513.4375 M 97.15625 525.8125 C 96.402344 527.269531 94.761719 527.894531 93.273438 527.121094 C 92.046875 526.484375 91.703125 525.246094 91.753906 524.28125 C 89.898438 525.082031 88.320312 524.964844 86.414062 523.976562 C 82.015625 521.695312 80.722656 515.894531 83.359375 510.820312 C 85.996094 505.75 91.488281 503.472656 95.886719 505.757812 C 97.792969 506.746094 98.804688 507.964844 99.210938 509.941406 C 99.964844 509.351562 101.179688 508.914062 102.40625 509.550781 C 103.898438 510.324219 104.324219 512.023438 103.570312 513.476562 Z M 97.15625 525.8125 "/>
<path style=" stroke:none;fill-rule:nonzero;fill:rgb(64.313725%,48.627451%,12.156863%);fill-opacity:1;" d="M 114.902344 520.507812 C 112.566406 519.578125 110.472656 521.09375 109.5 523.527344 C 108.476562 526.097656 108.980469 528.566406 111.3125 529.496094 C 113.648438 530.429688 115.714844 528.980469 116.742188 526.410156 C 117.714844 523.980469 117.238281 521.4375 114.902344 520.507812 M 119.132812 535.746094 C 116.449219 542.476562 111.035156 543.257812 105.859375 541.195312 C 103.117188 540.101562 98.398438 537.003906 99.539062 534.132812 C 100.011719 532.945312 101.613281 532.289062 102.65625 532.710938 C 104.179688 533.316406 104.539062 535.261719 107.617188 536.488281 C 110.902344 537.796875 112.707031 536.519531 113.878906 533.578125 L 113.8125 533.550781 C 112.011719 534.714844 109.957031 534.363281 108.195312 533.664062 C 103.089844 531.628906 102.320312 526.1875 104.226562 521.421875 C 106.34375 516.117188 111.582031 513.308594 116.183594 515.140625 C 118.175781 515.9375 119.304688 517.050781 119.90625 518.976562 C 120.601562 518.3125 121.765625 517.757812 123.050781 518.269531 C 124.605469 518.890625 125.207031 520.539062 124.597656 522.058594 Z M 119.132812 535.746094 "/>
<path style=" stroke:none;fill-rule:nonzero;fill:rgb(64.313725%,48.627451%,12.156863%);fill-opacity:1;" d="M 131.238281 515.265625 C 131.75 513.710938 133.265625 512.824219 134.859375 513.347656 C 136.445312 513.871094 137.148438 515.476562 136.640625 517.03125 L 129.675781 538.265625 C 129.171875 539.820312 127.652344 540.703125 126.0625 540.179688 C 124.464844 539.660156 123.769531 538.050781 124.277344 536.496094 Z M 131.238281 515.265625 "/>
<path style=" stroke:none;fill-rule:nonzero;fill:rgb(64.313725%,48.627451%,12.156863%);fill-opacity:1;" d="M 149.109375 534.457031 C 149.441406 533.226562 148.589844 530.777344 146.4375 530.199219 C 144.292969 529.625 142.328125 531.324219 141.996094 532.554688 Z M 140.992188 536.320312 C 140.679688 537.480469 141.054688 539.617188 144.574219 540.554688 C 147.285156 541.28125 149.398438 540 150.667969 540.339844 C 151.902344 540.667969 152.703125 541.898438 152.324219 543.304688 C 151.609375 545.980469 146.671875 546.542969 142.511719 545.433594 C 136.59375 543.855469 134.078125 538.464844 135.558594 532.945312 C 136.96875 527.667969 142.1875 524.085938 147.824219 525.59375 C 153.246094 527.039062 155.519531 532.511719 154.238281 537.296875 C 153.71875 539.230469 152.679688 539.445312 150.917969 538.972656 Z M 140.992188 536.320312 "/>
<path style=" stroke:none;fill-rule:nonzero;fill:rgb(93.72549%,33.333333%,12.156863%);fill-opacity:1;" d="M 163.546875 539.832031 C 163.058594 542.40625 164.003906 544.808594 166.46875 545.28125 C 168.9375 545.75 170.703125 543.867188 171.199219 541.292969 C 171.6875 538.722656 170.742188 536.320312 168.273438 535.851562 C 165.808594 535.378906 164.039062 537.261719 163.546875 539.832031 M 160.863281 523.660156 C 161.175781 522.050781 162.5625 520.984375 164.203125 521.296875 C 165.851562 521.613281 166.746094 523.117188 166.4375 524.722656 L 165.175781 531.328125 C 166.335938 530.699219 167.695312 530.183594 170.089844 530.640625 C 174.949219 531.570312 177.847656 536.753906 176.777344 542.363281 C 175.703125 547.96875 171.089844 551.714844 166.234375 550.785156 C 164.121094 550.386719 162.808594 549.503906 161.851562 547.726562 C 161.296875 548.507812 160.257812 549.273438 158.898438 549.015625 C 157.253906 548.703125 156.359375 547.195312 156.664062 545.589844 Z M 160.863281 523.660156 "/>
<path style=" stroke:none;fill-rule:nonzero;fill:rgb(93.72549%,33.333333%,12.156863%);fill-opacity:1;" d="M 185.785156 543.570312 C 185.460938 546.175781 186.5625 548.511719 189.058594 548.820312 C 191.554688 549.132812 193.203125 547.136719 193.527344 544.53125 C 193.851562 541.933594 192.746094 539.59375 190.25 539.28125 C 187.753906 538.972656 186.109375 540.972656 185.785156 543.570312 M 199.167969 545.234375 C 198.460938 550.90625 194.097656 554.953125 188.386719 554.242188 C 182.671875 553.535156 179.4375 548.542969 180.140625 542.871094 C 180.847656 537.195312 185.210938 533.152344 190.921875 533.863281 C 196.640625 534.574219 199.875 539.5625 199.167969 545.234375 "/>
<path style=" stroke:none;fill-rule:nonzero;fill:rgb(93.72549%,33.333333%,12.156863%);fill-opacity:1;" d="M 208.140625 545.890625 C 207.976562 548.503906 209.222656 550.765625 211.734375 550.921875 C 214.242188 551.074219 215.757812 548.980469 215.917969 546.363281 C 216.078125 543.75 214.828125 541.488281 212.316406 541.332031 C 209.8125 541.179688 208.300781 543.273438 208.140625 545.890625 M 221.160156 553.644531 C 221.0625 555.28125 219.820312 556.515625 218.152344 556.414062 C 216.765625 556.332031 215.953125 555.335938 215.601562 554.441406 C 214.238281 555.925781 212.746094 556.449219 210.601562 556.320312 C 205.660156 556.019531 202.121094 551.246094 202.46875 545.542969 C 202.816406 539.839844 206.914062 535.535156 211.851562 535.835938 C 213.996094 535.96875 215.414062 536.675781 216.589844 538.3125 C 217.046875 537.464844 217.972656 536.574219 219.355469 536.660156 C 221.027344 536.761719 222.113281 538.140625 222.011719 539.773438 Z M 221.160156 553.644531 "/>
<path style=" stroke:none;fill-rule:nonzero;fill:rgb(93.72549%,33.333333%,12.156863%);fill-opacity:1;" d="M 226.226562 539.8125 C 226.242188 538.175781 227.421875 536.878906 229.097656 536.894531 C 230.625 536.910156 231.558594 537.898438 231.917969 538.738281 C 232.875 537.621094 234.269531 536.578125 235.871094 536.59375 C 237.328125 536.609375 238.769531 537.789062 238.757812 539.574219 C 238.738281 541.535156 237.242188 541.996094 235.152344 542.59375 C 232.675781 543.296875 231.867188 543.945312 231.839844 546.851562 L 231.769531 553.761719 C 231.753906 555.402344 230.574219 556.699219 228.902344 556.679688 C 227.226562 556.667969 226.074219 555.347656 226.089844 553.707031 Z M 226.226562 539.8125 "/>
<path style=" stroke:none;fill-rule:nonzero;fill:rgb(93.72549%,33.333333%,12.156863%);fill-opacity:1;" d="M 246.042969 546.703125 C 246.144531 549.324219 247.613281 551.449219 250.125 551.351562 C 252.640625 551.25 253.9375 549.011719 253.832031 546.394531 C 253.730469 543.777344 252.261719 541.648438 249.746094 541.746094 C 247.238281 541.847656 245.9375 544.082031 246.042969 546.703125 M 259.789062 553.121094 C 259.855469 554.753906 258.738281 556.113281 257.066406 556.179688 C 255.679688 556.230469 254.773438 555.320312 254.332031 554.464844 C 253.125 556.078125 251.691406 556.753906 249.542969 556.839844 C 244.589844 557.03125 240.585938 552.636719 240.367188 546.925781 C 240.136719 541.214844 243.78125 536.519531 248.730469 536.320312 C 251.171875 536.226562 252.4375 536.941406 253.492188 537.734375 L 253.222656 531.007812 C 253.160156 529.371094 254.273438 528.015625 255.953125 527.949219 C 257.621094 527.882812 258.839844 529.144531 258.902344 530.785156 Z M 259.789062 553.121094 "/>
<path style=" stroke:none;fill-rule:nonzero;fill:rgb(64.313725%,48.627451%,12.156863%);fill-opacity:1;" d="M 283.738281 533.351562 C 286.265625 533.019531 290.511719 533.199219 290.902344 536.191406 C 291.105469 537.707031 290.238281 538.960938 288.9375 539.128906 C 287.496094 539.316406 286.972656 538.429688 284.773438 538.71875 C 281.917969 539.09375 280.867188 541.433594 281.207031 544.035156 C 281.546875 546.628906 283.207031 548.613281 285.699219 548.289062 C 288.117188 547.96875 289.105469 546.851562 289.9375 546.738281 C 291.238281 546.570312 292.421875 547.738281 292.578125 548.929688 C 292.949219 551.742188 288.648438 553.40625 286.410156 553.699219 C 280.707031 554.449219 276.320312 550.4375 275.578125 544.773438 C 274.832031 539.105469 278.03125 534.101562 283.738281 533.351562 "/>
<path style=" stroke:none;fill-rule:nonzero;fill:rgb(64.313725%,48.627451%,12.156863%);fill-opacity:1;" d="M 300.035156 541.183594 C 300.535156 543.757812 302.308594 545.640625 304.773438 545.164062 C 307.242188 544.6875 308.183594 542.28125 307.6875 539.710938 C 307.191406 537.140625 305.417969 535.257812 302.953125 535.734375 C 300.484375 536.207031 299.542969 538.613281 300.035156 541.183594 M 313.265625 538.636719 C 314.347656 544.246094 311.457031 549.433594 305.8125 550.519531 C 300.160156 551.609375 295.542969 547.871094 294.464844 542.261719 C 293.382812 536.652344 296.269531 531.464844 301.917969 530.375 C 307.570312 529.289062 312.183594 533.027344 313.265625 538.636719 "/>
<path style=" stroke:none;fill-rule:nonzero;fill:rgb(64.313725%,48.627451%,12.156863%);fill-opacity:1;" d="M 315.515625 531.1875 C 315.066406 529.609375 315.824219 528.03125 317.433594 527.574219 C 318.90625 527.148438 320.085938 527.832031 320.671875 528.539062 C 321.15625 526.925781 322.800781 525.660156 324.765625 525.097656 C 326.335938 524.644531 328.671875 524.585938 330.484375 525.886719 C 331.496094 524.535156 332.78125 522.808594 335.128906 522.136719 C 338.910156 521.050781 342.484375 522.152344 343.765625 526.632812 L 346.664062 536.75 C 347.113281 538.324219 346.355469 539.90625 344.742188 540.363281 C 343.128906 540.824219 341.648438 539.886719 341.199219 538.3125 L 338.722656 529.664062 C 338.230469 527.949219 336.839844 526.644531 335.050781 527.15625 C 333.265625 527.667969 332.769531 529.511719 333.261719 531.226562 L 335.734375 539.871094 C 336.1875 541.445312 335.425781 543.027344 333.8125 543.488281 C 332.199219 543.945312 330.71875 543.007812 330.269531 541.433594 L 327.792969 532.789062 C 327.304688 531.070312 325.910156 529.769531 324.117188 530.277344 C 322.335938 530.789062 321.839844 532.636719 322.332031 534.351562 L 324.804688 542.992188 C 325.257812 544.566406 324.496094 546.148438 322.886719 546.609375 C 321.273438 547.070312 319.792969 546.128906 319.34375 544.554688 Z M 315.515625 531.1875 "/>
<path style=" stroke:none;fill-rule:nonzero;fill:rgb(64.313725%,48.627451%,12.156863%);fill-opacity:1;" d="M 361.945312 523.171875 C 360.960938 520.746094 358.863281 519.238281 356.53125 520.175781 C 354.199219 521.113281 353.734375 523.65625 354.714844 526.082031 C 355.699219 528.515625 357.796875 530.023438 360.128906 529.085938 C 362.457031 528.144531 362.921875 525.605469 361.945312 523.171875 M 346.84375 521.761719 C 346.234375 520.242188 346.824219 518.59375 348.378906 517.96875 C 349.664062 517.449219 350.828125 518.003906 351.527344 518.664062 C 352.121094 516.734375 353.242188 515.617188 355.234375 514.816406 C 359.824219 512.964844 365.074219 515.753906 367.210938 521.050781 C 369.347656 526.351562 367.503906 531.996094 362.910156 533.84375 C 360.648438 534.753906 359.214844 534.511719 357.953125 534.117188 L 360.257812 539.820312 C 360.871094 541.339844 360.28125 542.984375 358.726562 543.613281 C 357.171875 544.238281 355.601562 543.460938 354.984375 541.9375 Z M 346.84375 521.761719 "/>
<path style=" stroke:none;fill-rule:nonzero;fill:rgb(64.313725%,48.627451%,12.156863%);fill-opacity:1;" d="M 375.429688 516.988281 C 376.652344 519.308594 378.886719 520.601562 381.117188 519.433594 C 383.34375 518.269531 383.554688 515.691406 382.335938 513.371094 C 381.117188 511.050781 378.875 509.757812 376.652344 510.925781 C 374.421875 512.089844 374.210938 514.667969 375.429688 516.988281 M 390.597656 516.894531 C 391.363281 518.34375 390.933594 520.042969 389.453125 520.824219 C 388.226562 521.464844 387.011719 521.035156 386.253906 520.445312 C 385.847656 522.425781 384.847656 523.644531 382.945312 524.644531 C 378.554688 526.945312 373.054688 524.6875 370.398438 519.625 C 367.738281 514.5625 369.011719 508.757812 373.398438 506.457031 C 375.304688 505.460938 376.886719 505.335938 378.742188 506.128906 C 378.691406 505.171875 379.023438 503.925781 380.253906 503.285156 C 381.734375 502.503906 383.375 503.128906 384.140625 504.578125 Z M 390.597656 516.894531 "/>
<path style=" stroke:none;fill-rule:nonzero;fill:rgb(64.313725%,48.627451%,12.156863%);fill-opacity:1;" d="M 390.3125 503.539062 L 389.765625 503.902344 C 388.242188 504.902344 386.828125 504.875 385.828125 503.355469 C 384.824219 501.835938 385.359375 500.527344 386.878906 499.527344 L 387.429688 499.164062 L 385.382812 496.066406 C 384.484375 494.699219 384.734375 492.964844 386.136719 492.042969 C 387.53125 491.121094 389.226562 491.578125 390.125 492.945312 L 392.175781 496.042969 L 393.480469 495.183594 C 394.996094 494.179688 396.414062 494.210938 397.414062 495.730469 C 398.417969 497.25 397.886719 498.558594 396.363281 499.558594 L 395.054688 500.417969 L 401.324219 509.925781 C 402.226562 511.296875 401.976562 513.035156 400.574219 513.953125 C 399.179688 514.871094 397.484375 514.421875 396.585938 513.050781 Z M 390.3125 503.539062 "/>
<path style=" stroke:none;fill-rule:nonzero;fill:rgb(64.313725%,48.627451%,12.156863%);fill-opacity:1;" d="M 399.152344 494.453125 C 398.148438 493.15625 398.269531 491.410156 399.601562 490.382812 C 400.925781 489.363281 402.648438 489.6875 403.652344 490.984375 L 412.15625 501.992188 C 413.15625 503.292969 413.03125 505.042969 411.703125 506.066406 C 410.375 507.085938 408.652344 506.761719 407.648438 505.464844 Z M 394.4375 483.695312 C 395.910156 482.5625 398.03125 482.8125 399.191406 484.308594 C 400.347656 485.808594 400.046875 487.925781 398.578125 489.054688 C 397.105469 490.191406 394.976562 489.941406 393.824219 488.441406 C 392.664062 486.945312 392.964844 484.828125 394.4375 483.695312 "/>
<path style=" stroke:none;fill-rule:nonzero;fill:rgb(64.313725%,48.627451%,12.156863%);fill-opacity:1;" d="M 415.96875 489.511719 C 417.820312 491.363281 420.34375 491.933594 422.125 490.164062 C 423.90625 488.386719 423.339844 485.863281 421.488281 484.007812 C 419.636719 482.148438 417.109375 481.585938 415.332031 483.359375 C 413.550781 485.128906 414.113281 487.652344 415.96875 489.511719 M 401.058594 482.621094 C 399.902344 481.457031 399.800781 479.710938 400.984375 478.527344 C 402.171875 477.34375 403.929688 477.449219 405.082031 478.609375 L 409.839844 483.375 C 409.972656 482.0625 410.3125 480.648438 412.039062 478.925781 C 415.546875 475.429688 421.46875 475.953125 425.511719 479.996094 C 429.550781 484.042969 430.0625 489.964844 426.550781 493.460938 C 425.03125 494.976562 423.5625 495.566406 421.550781 495.359375 C 421.886719 496.261719 421.9375 497.546875 420.957031 498.523438 C 419.769531 499.707031 418.015625 499.601562 416.859375 498.441406 Z M 401.058594 482.621094 "/>
<path style=" stroke:none;fill-rule:nonzero;fill:rgb(64.313725%,48.627451%,12.156863%);fill-opacity:1;" d="M 415.617188 467.15625 C 414.285156 466.195312 413.898438 464.484375 414.882812 463.128906 C 415.859375 461.765625 417.605469 461.589844 418.9375 462.546875 L 437.09375 475.605469 C 438.421875 476.566406 438.804688 478.277344 437.824219 479.636719 C 436.847656 480.996094 435.101562 481.175781 433.769531 480.21875 Z M 415.617188 467.15625 "/>
<path style=" stroke:none;fill-rule:nonzero;fill:rgb(64.313725%,48.627451%,12.156863%);fill-opacity:1;" d="M 438.15625 454.453125 C 436.988281 453.941406 434.4375 454.414062 433.546875 456.445312 C 432.652344 458.476562 434.035156 460.671875 435.199219 461.183594 Z M 438.769531 462.75 C 439.871094 463.230469 442.035156 463.1875 443.503906 459.855469 C 444.632812 457.292969 443.679688 455.007812 444.210938 453.808594 C 444.722656 452.644531 446.058594 452.039062 447.394531 452.621094 C 449.929688 453.734375 449.738281 458.699219 448.007812 462.628906 C 445.550781 468.226562 439.847656 469.898438 434.609375 467.601562 C 429.605469 465.40625 426.859375 459.710938 429.203125 454.382812 C 431.453125 449.25 437.210938 447.835938 441.746094 449.828125 C 443.578125 450.632812 443.632812 451.683594 442.898438 453.355469 Z M 438.769531 462.75 "/>
<path style=" stroke:none;fill-rule:evenodd;fill:rgb(13.72549%,12.156863%,12.54902%);fill-opacity:1;" d="M 154.710938 505.042969 C 146.113281 499.445312 142.117188 494.21875 141 484.519531 C 100.289062 480.789062 111.492188 439.742188 138.007812 422.953125 C 137.261719 418.097656 136.511719 413.25 136.140625 408.769531 C 123.074219 391.234375 48.757812 286.386719 104.398438 281.15625 C 106.207031 281.277344 108.070312 282.402344 109.628906 284.144531 C 119.335938 298.699219 123.074219 319.59375 131.664062 336.011719 C 138.382812 300.5625 139.875 299.070312 142.117188 289.367188 C 123.449219 289.367188 101.78125 272.726562 91.332031 258.402344 C 85.625 250.574219 83.222656 236.320312 83.195312 232.238281 C 81.65625 222.90625 81.257812 215.457031 81.964844 206.53125 C 82.332031 201.925781 87.738281 187.808594 88.511719 186.078125 C 106.804688 145.230469 103.929688 144.699219 123.074219 103.550781 C 133.515625 81.09375 139.503906 77.421875 161.53125 69.589844 C 196.261719 41.234375 241.082031 31.527344 282.910156 51.679688 C 312.773438 68.839844 323.984375 93.84375 336.679688 124.441406 C 358.710938 132.652344 377.757812 142.722656 395.683594 158.027344 C 429.296875 167.351562 420.335938 185.636719 420.335938 215.113281 C 416.222656 235.636719 413.980469 240.113281 413.980469 243.84375 C 424.066406 268.84375 416.082031 304.433594 382.984375 296.082031 C 377.050781 294.589844 373.273438 288.621094 368.796875 284.894531 C 359.460938 288.246094 350.125 291.609375 341.160156 294.972656 C 341.648438 298.902344 343.898438 309.261719 345.265625 315.488281 C 348.632812 351.6875 348.632812 384.148438 340.78125 419.222656 C 361.703125 434.894531 377.132812 455.886719 355.65625 477.054688 C 350.300781 482.328125 349.375 482.648438 337.796875 486.011719 C 335.9375 493.847656 333.691406 498.328125 326.964844 503.550781 C 317.210938 508.859375 297.023438 510.4375 284.613281 505.070312 C 279.300781 502.777344 271.085938 498.875 264.234375 494.21875 C 255.644531 484.894531 254.519531 477.800781 252.28125 465.863281 C 243.6875 465.863281 235.101562 466.230469 226.511719 466.609375 C 223.902344 483.027344 216.800781 493.105469 202.617188 502.429688 C 186.003906 510.988281 166.671875 508.675781 154.710938 505.042969 "/>
<path style=" stroke:none;fill-rule:evenodd;fill:rgb(100%,100%,100%);fill-opacity:1;" d="M 170.871094 337.132812 C 174.609375 313.628906 178.332031 305.046875 199.257812 294.59375 C 227.265625 294.59375 259.746094 298.699219 259.746094 261.757812 C 248.167969 227.804688 236.601562 199.816406 257.507812 167.726562 C 273.941406 151.304688 281.785156 143.101562 277.304688 119.222656 C 267.222656 95.335938 253.777344 71.832031 240.707031 49.070312 C 240.707031 47.949219 240.707031 47.949219 248.167969 49.070312 C 248.167969 50.1875 248.167969 51.308594 248.550781 52.425781 C 274.308594 93.472656 281.027344 120.339844 328.84375 128.921875 C 347.878906 136.382812 366.921875 145.335938 383.359375 157.28125 C 381.652344 158.484375 381.203125 157.1875 369.535156 163.992188 C 358.710938 174.816406 351.542969 180.15625 354.226562 193.472656 C 365.4375 218.84375 390.832031 218.84375 412.867188 206.53125 C 404.640625 247.578125 328.46875 254.664062 297.835938 258.769531 C 269.457031 272.203125 330.703125 281.15625 338.550781 282.652344 C 316.890625 291.609375 282.910156 286.757812 260.125 286.386719 C 259.746094 288.621094 259.378906 290.863281 259.378906 293.101562 C 270.578125 294.222656 281.785156 295.339844 292.984375 296.828125 C 299.710938 307.652344 307.539062 318.472656 309.042969 331.535156 C 304.195312 368.847656 308.667969 411.757812 313.152344 449.074219 C 318.011719 458.773438 334.820312 481.160156 322.109375 490.113281 C 300.828125 494.21875 277.304688 489.742188 268.714844 469.21875 C 270.960938 437.132812 273.570312 405.046875 273.570312 372.953125 C 272.828125 371.089844 272.074219 369.21875 271.699219 367.351562 C 270.578125 368.847656 269.457031 370.710938 268.335938 372.582031 C 266.46875 399.070312 264.609375 425.570312 263.117188 452.054688 C 254.515625 456.15625 232.113281 453.550781 221.660156 453.550781 C 218.667969 415.492188 218.667969 415.492188 217.550781 382.652344 C 214.941406 370.710938 214.941406 370.710938 213.066406 367.351562 C 202.613281 399.441406 217.550781 439.742188 213.820312 473.324219 C 202.613281 490.488281 182.449219 493.847656 162.652344 490.113281 C 149.582031 481.90625 166.765625 457.277344 170.121094 447.949219 C 174.609375 415.113281 174.976562 380.785156 174.976562 347.578125 C 174.230469 344.21875 173.492188 340.863281 173.113281 337.871094 C 172.367188 337.503906 171.617188 337.132812 170.871094 337.132812 "/>
<path style=" stroke:none;fill-rule:evenodd;fill:rgb(67.45098%,54.117647%,11.764706%);fill-opacity:1;" d="M 101.039062 318.472656 C 104.394531 315.117188 107.757812 312.132812 111.117188 309.148438 C 118.589844 328.921875 127.175781 345.714844 141.371094 361.757812 C 144.355469 336.011719 148.460938 312.132812 155.5625 287.503906 C 204.851562 286.757812 236.96875 272.574219 239.589844 219.964844 C 238.765625 213.558594 237.859375 207.050781 236.597656 200.191406 C 220.914062 149.070312 207.839844 100.933594 203.734375 90.863281 C 197.015625 78.550781 189.910156 74.445312 177.96875 68.472656 C 198.511719 56.15625 215.308594 46.828125 240.707031 49.070312 C 253.773438 71.828125 267.21875 95.339844 277.304688 119.21875 C 281.78125 143.101562 273.941406 151.308594 257.507812 167.726562 C 236.597656 199.816406 248.167969 227.804688 259.746094 261.757812 C 259.746094 298.695312 227.261719 294.59375 199.253906 294.59375 C 178.335938 305.042969 174.613281 313.625 170.875 337.132812 C 163.398438 370.714844 165.644531 409.523438 163.777344 444.21875 C 159.664062 453.175781 155.5625 462.132812 151.453125 471.460938 C 127.550781 471.460938 121.949219 462.132812 131.664062 440.113281 C 138.003906 432.65625 143.980469 429.292969 152.574219 424.816406 C 152.574219 400.558594 132.035156 381.160156 120.089844 361.757812 C 110 341.984375 110 341.984375 101.039062 318.472656 "/>
<path style=" stroke:none;fill-rule:evenodd;fill:rgb(67.45098%,54.117647%,11.764706%);fill-opacity:1;" d="M 309.042969 331.535156 C 307.539062 318.472656 299.707031 307.65625 292.984375 296.828125 C 305.3125 295.339844 318.011719 294.222656 330.703125 293.101562 C 343.398438 340.117188 342.648438 376.683594 331.824219 424.070312 C 356.101562 436.011719 375.515625 471.832031 332.945312 471.832031 C 328.464844 463.25 324.359375 454.664062 320.246094 446.085938 C 318.011719 412.878906 315.761719 379.296875 315.023438 345.714844 C 313.902344 340.117188 312.773438 336.011719 309.042969 331.535156 "/>
<path style=" stroke:none;fill-rule:evenodd;fill:rgb(100%,100%,100%);fill-opacity:1;" d="M 101.039062 318.472656 C 99.167969 309.519531 94.316406 297.949219 98.796875 288.996094 C 100.5625 287.359375 102.136719 286.886719 103.648438 288.996094 C 107.015625 296.085938 110.375 300.9375 111.117188 309.148438 C 107.757812 312.132812 104.394531 315.117188 101.039062 318.472656 "/>
<path style=" stroke:none;fill-rule:evenodd;fill:rgb(93.72549%,41.176471%,9.411765%);fill-opacity:1;" d="M 388.214844 283.027344 C 380.746094 278.546875 368.800781 266.980469 367.675781 258.773438 C 379.628906 255.042969 389.710938 249.066406 400.535156 242.351562 C 414.730469 253.171875 412.488281 272.207031 399.039062 281.90625 C 395.308594 283.878906 391.574219 283.894531 388.214844 283.027344 "/>
<path style=" stroke:none;fill-rule:evenodd;fill:rgb(67.45098%,54.117647%,11.764706%);fill-opacity:1;" d="M 156.675781 279.292969 C 48.007812 257.652344 107.757812 160.636719 141.367188 93.46875 C 160.414062 67.722656 185.429688 73.324219 199.632812 99.070312 C 212.320312 147.203125 212.320312 147.203125 227.261719 193.84375 C 230.992188 216.980469 234.972656 236.382812 222.035156 257.652344 C 201.496094 278.179688 184.691406 278.546875 156.675781 279.292969 "/>
<path style=" stroke:none;fill-rule:evenodd;fill:rgb(58.823529%,45.490196%,14.901961%);fill-opacity:1;" d="M 161.53125 268.84375 C 157.429688 267.722656 153.316406 266.605469 149.582031 265.859375 C 178.714844 250.1875 201.496094 236.382812 220.910156 208.398438 C 221.660156 208.398438 222.40625 208.773438 223.15625 209.144531 C 223.15625 252.800781 202.988281 263.996094 161.53125 268.84375 "/>
<path style=" stroke:none;fill-rule:evenodd;fill:rgb(100%,100%,100%);fill-opacity:1;" d="M 366.925781 183.398438 C 366.925781 171.453125 399.425781 159.515625 406.886719 166.980469 C 397.179688 179.664062 382.238281 182.28125 366.925781 183.398438 "/>
<path style=" stroke:none;fill-rule:evenodd;fill:rgb(13.72549%,12.156863%,12.54902%);fill-opacity:1;" d="M 235.875 134.777344 C 228.523438 132.917969 217.925781 126.304688 224.648438 114.367188 C 227.53125 111.160156 233.917969 109.515625 238.417969 109.03125 C 256.949219 107.039062 271.238281 124.800781 247.800781 134.710938 C 243.933594 135.632812 240.941406 136.0625 235.875 134.777344 "/>
<path style=" stroke:none;fill-rule:evenodd;fill:rgb(67.45098%,54.117647%,11.764706%);fill-opacity:1;" d="M 248.167969 49.070312 C 278.421875 54.292969 304.9375 69.59375 317.261719 99.070312 C 300.453125 100.5625 294.105469 112.503906 310.15625 121.832031 C 314.640625 123.175781 325.46875 121.210938 327.203125 120.546875 C 327.585938 123.160156 328.09375 126.308594 328.84375 128.921875 C 281.027344 120.34375 274.308594 93.472656 248.550781 52.425781 C 248.167969 51.308594 248.167969 50.191406 248.167969 49.070312 "/>
<path style=" stroke:none;fill-rule:evenodd;fill:rgb(100%,100%,100%);fill-opacity:1;" d="M 233.238281 119.21875 C 232.492188 116.605469 231.363281 116.605469 230.996094 114.371094 C 233.613281 113.246094 233.613281 113.246094 238.09375 113.625 C 238.839844 114.371094 237.496094 115.113281 238.234375 116.234375 C 237.113281 117.726562 236.894531 117.574219 236.148438 119.070312 C 234.277344 119.070312 234.726562 118.84375 233.238281 119.21875 "/>
<path style=" stroke:none;fill-rule:evenodd;fill:rgb(100%,100%,100%);fill-opacity:1;" d="M 308.230469 109.589844 C 307.480469 106.605469 307.101562 108.546875 308.59375 106.3125 C 314.570312 106.3125 313.527344 104.667969 312.40625 110.265625 C 310.542969 110.636719 309.710938 109.21875 308.230469 109.589844 "/>
<path style=" stroke:none;fill-rule:evenodd;fill:rgb(66.666667%,15.686275%,12.941176%);fill-opacity:1;" d="M 385.328125 251.433594 C 392.40625 258.363281 397.609375 266.324219 401.121094 277.65625 C 401.527344 276.972656 402.078125 276.835938 402.484375 276.144531 C 401.132812 268.421875 396.707031 259.980469 387.660156 250.058594 C 387.023438 250.605469 385.972656 250.882812 385.328125 251.433594 "/>
<path style=" stroke:none;fill-rule:evenodd;fill:rgb(100%,100%,100%);fill-opacity:1;" d="M 309.949219 104.859375 C 312.335938 104.859375 314.273438 106.378906 314.273438 108.253906 C 314.273438 110.132812 312.335938 111.65625 309.949219 111.65625 C 307.5625 111.65625 305.625 110.132812 305.625 108.253906 C 305.625 106.378906 307.5625 104.859375 309.949219 104.859375 "/>
<path style=" stroke:none;fill-rule:evenodd;fill:rgb(100%,100%,100%);fill-opacity:1;" d="M 235.285156 112.871094 C 237.925781 112.871094 240.066406 114.554688 240.066406 116.621094 C 240.066406 118.695312 237.925781 120.382812 235.285156 120.382812 C 232.652344 120.382812 230.511719 118.695312 230.511719 116.621094 C 230.511719 114.554688 232.652344 112.871094 235.285156 112.871094 "/>
</g>
</svg>
