<?xml version="1.0" encoding="UTF-8" standalone="no"?>
<!-- Created with Inkscape (http://www.inkscape.org/) -->

<svg
   xmlns:dc="http://purl.org/dc/elements/1.1/"
   xmlns:cc="http://creativecommons.org/ns#"
   xmlns:rdf="http://www.w3.org/1999/02/22-rdf-syntax-ns#"
   xmlns:svg="http://www.w3.org/2000/svg"
   xmlns="http://www.w3.org/2000/svg"
   xmlns:inkscape="http://www.inkscape.org/namespaces/inkscape"
   version="1.1"
   width="2127.5"
   height="415"
   id="svg2"
   xml:space="preserve"><metadata
     id="metadata8"><rdf:RDF><cc:Work
         rdf:about=""><dc:format>image/svg+xml</dc:format><dc:type
           rdf:resource="http://purl.org/dc/dcmitype/StillImage" /></cc:Work></rdf:RDF></metadata><defs
     id="defs6"><clipPath
       id="clipPath18"><path
         d="m 0,0 1702,0 0,332 L 0,332 0,0 z"
         inkscape:connector-curvature="0"
         id="path20" /></clipPath><clipPath
       id="clipPath86"><path
         d="m 0.06,331.521 1701.67,0 L 1701.73,0 0.06,0 l 0,331.521 z"
         inkscape:connector-curvature="0"
         id="path88" /></clipPath><clipPath
       id="clipPath92"><path
         d="m 0,0 1702,0 0,332 L 0,332 0,0 z"
         inkscape:connector-curvature="0"
         id="path94" /></clipPath><clipPath
       id="clipPath108"><path
         d="m 0,0 1702,0 0,332 L 0,332 0,0 z"
         inkscape:connector-curvature="0"
         id="path110" /></clipPath><clipPath
       id="clipPath122"><path
         d="m 0.06,331.521 1701.67,0 L 1701.73,0 0.06,0 l 0,331.521 z"
         inkscape:connector-curvature="0"
         id="path124" /></clipPath><clipPath
       id="clipPath128"><path
         d="m 0,0 1702,0 0,332 L 0,332 0,0 z"
         inkscape:connector-curvature="0"
         id="path130" /></clipPath><clipPath
       id="clipPath138"><path
         d="m 0,0 1702,0 0,332 L 0,332 0,0 z"
         inkscape:connector-curvature="0"
         id="path140" /></clipPath><clipPath
       id="clipPath154"><path
         d="m 0.06,331.521 1701.67,0 L 1701.73,0 0.06,0 l 0,331.521 z"
         inkscape:connector-curvature="0"
         id="path156" /></clipPath><clipPath
       id="clipPath160"><path
         d="m 0,0 1702,0 0,332 L 0,332 0,0 z"
         inkscape:connector-curvature="0"
         id="path162" /></clipPath><clipPath
       id="clipPath170"><path
         d="m 0,0 1702,0 0,332 L 0,332 0,0 z"
         inkscape:connector-curvature="0"
         id="path172" /></clipPath><clipPath
       id="clipPath182"><path
         d="m 0.06,331.521 1701.67,0 L 1701.73,0 0.06,0 l 0,331.521 z"
         inkscape:connector-curvature="0"
         id="path184" /></clipPath><clipPath
       id="clipPath188"><path
         d="m 0,0 1702,0 0,332 L 0,332 0,0 z"
         inkscape:connector-curvature="0"
         id="path190" /></clipPath><clipPath
       id="clipPath200"><path
         d="m 0,0 1702,0 0,332 L 0,332 0,0 z"
         inkscape:connector-curvature="0"
         id="path202" /></clipPath></defs><g
     transform="matrix(1.25,0,0,-1.25,0,415)"
     id="g10"><g
       id="g12" /><g
       id="g14"><g
         clip-path="url(#clipPath18)"
         id="g16"><path
           d="m 333.212,91.639 c 15.052,0 22.479,15.655 22.479,29.102 0,13.648 -7.427,29.504 -22.479,29.504 -15.455,0 -22.681,-14.451 -22.681,-28.5 0,-14.049 6.825,-30.106 22.681,-30.106 z M 281.63,206.041 c 0,9.635 6.021,16.057 14.451,16.057 8.429,0 14.45,-6.422 14.45,-16.057 l 0,-39.338 c 7.627,6.623 17.462,10.035 27.497,10.035 31.11,0 46.564,-29.102 46.564,-57.201 0,-27.296 -18.465,-54.391 -47.567,-54.391 -9.835,0 -21.074,4.415 -26.494,13.246 -1.806,-7.627 -6.422,-12.042 -14.45,-12.042 -8.43,0 -14.451,6.423 -14.451,16.057 l 0,123.634"
           inkscape:connector-curvature="0"
           id="path22"
           style="fill:#a2781e;fill-opacity:1;fill-rule:nonzero;stroke:none" /><path
           d="m 333.212,91.639 c 15.052,0 22.479,15.655 22.479,29.102 0,13.648 -7.427,29.504 -22.479,29.504 -15.455,0 -22.681,-14.451 -22.681,-28.5 0,-14.049 6.825,-30.106 22.681,-30.106 z M 281.63,206.041 c 0,9.635 6.021,16.057 14.451,16.057 8.429,0 14.45,-6.422 14.45,-16.057 l 0,-39.338 c 7.627,6.623 17.462,10.035 27.497,10.035 31.11,0 46.564,-29.102 46.564,-57.201 0,-27.296 -18.465,-54.391 -47.567,-54.391 -9.835,0 -21.074,4.415 -26.494,13.246 -1.806,-7.627 -6.422,-12.042 -14.45,-12.042 -8.43,0 -14.451,6.423 -14.451,16.057 l 0,123.634 z"
           inkscape:connector-curvature="0"
           id="path24"
           style="fill:none;stroke:#313638;stroke-width:7;stroke-linecap:butt;stroke-linejoin:miter;stroke-miterlimit:4;stroke-opacity:1;stroke-dasharray:none" /><path
           d="m 462.474,130.576 c -1.605,12.644 -9.634,22.078 -23.081,22.078 -12.845,0 -21.475,-9.835 -22.88,-22.078 l 45.961,0 z m -45.359,-19.268 c 2.007,-14.25 13.848,-20.873 27.296,-20.873 14.852,0 25.088,11.64 32.715,11.64 6.222,0 11.841,-6.221 11.841,-12.443 0,-12.444 -25.69,-24.486 -47.165,-24.486 -32.515,0 -54.191,23.683 -54.191,55.595 0,29.303 21.275,55.997 51.782,55.997 31.31,0 51.983,-28.5 51.983,-52.585 0,-8.63 -3.813,-12.845 -12.644,-12.845 l -61.617,0"
           inkscape:connector-curvature="0"
           id="path26"
           style="fill:#a2781e;fill-opacity:1;fill-rule:nonzero;stroke:none" /><path
           d="m 462.474,130.576 c -1.605,12.644 -9.634,22.078 -23.081,22.078 -12.845,0 -21.475,-9.835 -22.88,-22.078 l 45.961,0 z m -45.359,-19.268 c 2.007,-14.25 13.848,-20.873 27.296,-20.873 14.852,0 25.088,11.64 32.715,11.64 6.222,0 11.841,-6.221 11.841,-12.443 0,-12.444 -25.69,-24.486 -47.165,-24.486 -32.515,0 -54.191,23.683 -54.191,55.595 0,29.303 21.275,55.997 51.782,55.997 31.31,0 51.983,-28.5 51.983,-52.585 0,-8.63 -3.813,-12.845 -12.644,-12.845 l -61.617,0 z"
           inkscape:connector-curvature="0"
           id="path28"
           style="fill:none;stroke:#313638;stroke-width:7;stroke-linecap:butt;stroke-linejoin:miter;stroke-miterlimit:4;stroke-opacity:1;stroke-dasharray:none" /><path
           d="m 547.177,91.639 c 15.053,0 22.279,15.253 22.279,29.102 0,13.849 -7.025,29.504 -22.279,29.504 -15.856,0 -22.881,-15.655 -22.881,-29.504 0,-13.849 7.226,-29.102 22.881,-29.102 z m 51.18,-6.423 c 0,-7.426 0,-18.866 -13.849,-18.866 -8.429,0 -11.841,4.616 -13.848,12.243 -7.427,-8.831 -16.458,-13.447 -27.497,-13.447 -27.096,0 -47.768,23.081 -47.768,55.595 0,31.712 21.274,55.997 47.768,55.997 10.637,0 21.074,-4.214 27.497,-13.247 0.802,7.025 6.824,12.043 13.848,12.043 13.849,0 13.849,-11.44 13.849,-18.866 l 0,-71.452"
           inkscape:connector-curvature="0"
           id="path30"
           style="fill:#a2781e;fill-opacity:1;fill-rule:nonzero;stroke:none" /><path
           d="m 547.177,91.639 c 15.053,0 22.279,15.253 22.279,29.102 0,13.849 -7.025,29.504 -22.279,29.504 -15.856,0 -22.881,-15.655 -22.881,-29.504 0,-13.849 7.226,-29.102 22.881,-29.102 z m 51.18,-6.423 c 0,-7.426 0,-18.866 -13.849,-18.866 -8.429,0 -11.841,4.616 -13.848,12.243 -7.427,-8.831 -16.458,-13.447 -27.497,-13.447 -27.096,0 -47.768,23.081 -47.768,55.595 0,31.712 21.274,55.997 47.768,55.997 10.637,0 21.074,-4.214 27.497,-13.247 0.802,7.025 6.824,12.043 13.848,12.043 13.849,0 13.849,-11.44 13.849,-18.866 l 0,-71.452 z"
           inkscape:connector-curvature="0"
           id="path32"
           style="fill:none;stroke:#313638;stroke-width:7;stroke-linecap:butt;stroke-linejoin:miter;stroke-miterlimit:4;stroke-opacity:1;stroke-dasharray:none" /><path
           d="m 655.979,150.245 c -15.053,0 -22.479,-15.655 -22.479,-29.102 0,-15.455 7.426,-29.504 22.479,-29.504 15.455,0 22.68,14.451 22.68,28.5 0,14.05 -6.824,30.106 -22.68,30.106 z m 51.582,-74.261 c 0,-34.723 -22.68,-52.183 -55.596,-52.183 -11.841,0 -45.56,5.82 -45.56,21.675 0,5.419 6.021,12.645 11.641,12.645 9.232,0 19.469,-9.031 36.127,-9.031 14.05,0 24.486,8.228 24.486,22.88 l 0,6.824 -0.401,0 c -6.021,-8.831 -15.856,-13.648 -29.103,-13.648 -30.306,0 -44.556,26.694 -44.556,55.395 0,29.102 18.465,56.197 47.567,56.197 9.834,0 21.074,-4.415 26.493,-13.247 1.806,7.627 6.423,12.043 14.451,12.043 8.43,0 14.451,-6.422 14.451,-16.056 l 0,-83.494"
           inkscape:connector-curvature="0"
           id="path34"
           style="fill:#a2781e;fill-opacity:1;fill-rule:nonzero;stroke:none" /><path
           d="m 655.979,150.245 c -15.053,0 -22.479,-15.655 -22.479,-29.102 0,-15.455 7.426,-29.504 22.479,-29.504 15.455,0 22.68,14.451 22.68,28.5 0,14.05 -6.824,30.106 -22.68,30.106 z m 51.582,-74.261 c 0,-34.723 -22.68,-52.183 -55.596,-52.183 -11.841,0 -45.56,5.82 -45.56,21.675 0,5.419 6.021,12.645 11.641,12.645 9.232,0 19.469,-9.031 36.127,-9.031 14.05,0 24.486,8.228 24.486,22.88 l 0,6.824 -0.401,0 c -6.021,-8.831 -15.856,-13.648 -29.103,-13.648 -30.306,0 -44.556,26.694 -44.556,55.395 0,29.102 18.465,56.197 47.567,56.197 9.834,0 21.074,-4.415 26.493,-13.247 1.806,7.627 6.423,12.043 14.451,12.043 8.43,0 14.451,-6.422 14.451,-16.056 l 0,-83.494 z"
           inkscape:connector-curvature="0"
           id="path36"
           style="fill:none;stroke:#313638;stroke-width:7;stroke-linecap:butt;stroke-linejoin:miter;stroke-miterlimit:4;stroke-opacity:1;stroke-dasharray:none" /><path
           d="m 716.615,206.041 c 0,9.635 6.021,16.057 14.451,16.057 8.43,0 14.451,-6.422 14.451,-16.057 l 0,-123.634 c 0,-9.634 -6.021,-16.057 -14.451,-16.057 -8.43,0 -14.451,6.423 -14.451,16.057 l 0,123.634"
           inkscape:connector-curvature="0"
           id="path38"
           style="fill:#a2781e;fill-opacity:1;fill-rule:nonzero;stroke:none" /><path
           d="m 716.615,206.041 c 0,9.635 6.021,16.057 14.451,16.057 8.43,0 14.451,-6.422 14.451,-16.057 l 0,-123.634 c 0,-9.634 -6.021,-16.057 -14.451,-16.057 -8.43,0 -14.451,6.423 -14.451,16.057 l 0,123.634 z"
           inkscape:connector-curvature="0"
           id="path40"
           style="fill:none;stroke:#313638;stroke-width:7;stroke-linecap:butt;stroke-linejoin:miter;stroke-miterlimit:4;stroke-opacity:1;stroke-dasharray:none" /><path
           d="m 828.212,130.576 c -1.605,12.644 -9.634,22.078 -23.081,22.078 -12.846,0 -21.476,-9.835 -22.881,-22.078 l 45.962,0 z m -45.36,-19.268 c 2.007,-14.25 13.849,-20.873 27.296,-20.873 14.853,0 25.088,11.64 32.715,11.64 6.223,0 11.842,-6.221 11.842,-12.443 0,-12.444 -25.69,-24.486 -47.166,-24.486 -32.514,0 -54.191,23.683 -54.191,55.595 0,29.303 21.275,55.997 51.783,55.997 31.311,0 51.982,-28.5 51.982,-52.585 0,-8.63 -3.813,-12.845 -12.644,-12.845 l -61.617,0"
           inkscape:connector-curvature="0"
           id="path42"
           style="fill:#a2781e;fill-opacity:1;fill-rule:nonzero;stroke:none" /><path
           d="m 828.212,130.576 c -1.605,12.644 -9.634,22.078 -23.081,22.078 -12.846,0 -21.476,-9.835 -22.881,-22.078 l 45.962,0 z m -45.36,-19.268 c 2.007,-14.25 13.849,-20.873 27.296,-20.873 14.853,0 25.088,11.64 32.715,11.64 6.223,0 11.842,-6.221 11.842,-12.443 0,-12.444 -25.69,-24.486 -47.166,-24.486 -32.514,0 -54.191,23.683 -54.191,55.595 0,29.303 21.275,55.997 51.783,55.997 31.311,0 51.982,-28.5 51.982,-52.585 0,-8.63 -3.813,-12.845 -12.644,-12.845 l -61.617,0 z"
           inkscape:connector-curvature="0"
           id="path44"
           style="fill:none;stroke:#313638;stroke-width:7;stroke-linecap:butt;stroke-linejoin:miter;stroke-miterlimit:4;stroke-opacity:1;stroke-dasharray:none" /><path
           d="m 919.928,91.639 c 15.054,0 22.479,15.655 22.479,29.102 0,13.648 -7.425,29.504 -22.479,29.504 -15.454,0 -22.68,-14.451 -22.68,-28.5 0,-14.049 6.824,-30.106 22.68,-30.106 z m -51.581,114.402 c 0,9.635 6.021,16.057 14.451,16.057 8.43,0 14.45,-6.422 14.45,-16.057 l 0,-39.338 c 7.627,6.623 17.462,10.035 27.497,10.035 31.109,0 46.564,-29.102 46.564,-57.201 0,-27.296 -18.465,-54.391 -47.568,-54.391 -9.834,0 -21.074,4.415 -26.493,13.246 -1.806,-7.627 -6.423,-12.042 -14.45,-12.042 -8.43,0 -14.451,6.423 -14.451,16.057 l 0,123.634"
           inkscape:connector-curvature="0"
           id="path46"
           style="fill:#ee531b;fill-opacity:1;fill-rule:nonzero;stroke:none" /><path
           d="m 919.928,91.639 c 15.054,0 22.479,15.655 22.479,29.102 0,13.648 -7.425,29.504 -22.479,29.504 -15.454,0 -22.68,-14.451 -22.68,-28.5 0,-14.049 6.824,-30.106 22.68,-30.106 z m -51.581,114.402 c 0,9.635 6.021,16.057 14.451,16.057 8.43,0 14.45,-6.422 14.45,-16.057 l 0,-39.338 c 7.627,6.623 17.462,10.035 27.497,10.035 31.109,0 46.564,-29.102 46.564,-57.201 0,-27.296 -18.465,-54.391 -47.568,-54.391 -9.834,0 -21.074,4.415 -26.493,13.246 -1.806,-7.627 -6.423,-12.042 -14.45,-12.042 -8.43,0 -14.451,6.423 -14.451,16.057 l 0,123.634 z"
           inkscape:connector-curvature="0"
           id="path48"
           style="fill:none;stroke:#313638;stroke-width:7;stroke-linecap:butt;stroke-linejoin:miter;stroke-miterlimit:4;stroke-opacity:1;stroke-dasharray:none" /><path
           d="m 1006.24,120.741 c 0,-13.849 7.22,-29.102 22.88,-29.102 15.65,0 22.88,15.253 22.88,29.102 0,13.849 -7.03,29.504 -22.88,29.504 -15.86,0 -22.88,-15.655 -22.88,-29.504 z m 74.66,0 c 0,-30.105 -20.67,-55.595 -51.78,-55.595 -31.112,0 -51.784,25.49 -51.784,55.595 0,29.303 21.274,55.997 51.784,55.997 30.51,0 51.78,-26.694 51.78,-55.997"
           inkscape:connector-curvature="0"
           id="path50"
           style="fill:#ee531b;fill-opacity:1;fill-rule:nonzero;stroke:none" /><path
           d="m 1006.24,120.741 c 0,-13.849 7.22,-29.102 22.88,-29.102 15.65,0 22.88,15.253 22.88,29.102 0,13.849 -7.03,29.504 -22.88,29.504 -15.86,0 -22.88,-15.655 -22.88,-29.504 z m 74.66,0 c 0,-30.105 -20.67,-55.595 -51.78,-55.595 -31.112,0 -51.784,25.49 -51.784,55.595 0,29.303 21.274,55.997 51.784,55.997 30.51,0 51.78,-26.694 51.78,-55.997 z"
           inkscape:connector-curvature="0"
           id="path52"
           style="fill:none;stroke:#313638;stroke-width:7;stroke-linecap:butt;stroke-linejoin:miter;stroke-miterlimit:4;stroke-opacity:1;stroke-dasharray:none" /><path
           d="m 1138.71,91.639 c 15.05,0 22.28,15.253 22.28,29.102 0,13.849 -7.03,29.504 -22.28,29.504 -15.86,0 -22.88,-15.655 -22.88,-29.504 0,-13.849 7.23,-29.102 22.88,-29.102 z m 51.18,-6.423 c 0,-7.426 0,-18.866 -13.85,-18.866 -8.43,0 -11.84,4.616 -13.85,12.243 -7.42,-8.831 -16.45,-13.447 -27.49,-13.447 -27.1,0 -47.77,23.081 -47.77,55.595 0,31.712 21.27,55.997 47.77,55.997 10.63,0 21.07,-4.214 27.49,-13.247 0.81,7.025 6.83,12.043 13.85,12.043 13.85,0 13.85,-11.44 13.85,-18.866 l 0,-71.452"
           inkscape:connector-curvature="0"
           id="path54"
           style="fill:#ee531b;fill-opacity:1;fill-rule:nonzero;stroke:none" /><path
           d="m 1138.71,91.639 c 15.05,0 22.28,15.253 22.28,29.102 0,13.849 -7.03,29.504 -22.28,29.504 -15.86,0 -22.88,-15.655 -22.88,-29.504 0,-13.849 7.23,-29.102 22.88,-29.102 z m 51.18,-6.423 c 0,-7.426 0,-18.866 -13.85,-18.866 -8.43,0 -11.84,4.616 -13.85,12.243 -7.42,-8.831 -16.45,-13.447 -27.49,-13.447 -27.1,0 -47.77,23.081 -47.77,55.595 0,31.712 21.27,55.997 47.77,55.997 10.63,0 21.07,-4.214 27.49,-13.247 0.81,7.025 6.83,12.043 13.85,12.043 13.85,0 13.85,-11.44 13.85,-18.866 l 0,-71.452 z"
           inkscape:connector-curvature="0"
           id="path56"
           style="fill:none;stroke:#313638;stroke-width:7;stroke-linecap:butt;stroke-linejoin:miter;stroke-miterlimit:4;stroke-opacity:1;stroke-dasharray:none" /><path
           d="m 1197.95,161.083 c 0,9.634 7.62,14.451 14.85,14.451 7.62,0 14.05,-2.81 14.05,-12.043 l 0.4,0 c 5.42,8.029 11.24,12.043 20.27,12.043 7.03,0 14.05,-5.018 14.05,-15.454 0,-9.434 -8.63,-10.036 -17.26,-14.05 -8.63,-4.014 -17.46,-7.827 -17.46,-19.268 l 0,-44.355 c 0,-9.634 -6.02,-16.057 -14.45,-16.057 -8.43,0 -14.45,6.423 -14.45,16.057 l 0,78.676"
           inkscape:connector-curvature="0"
           id="path58"
           style="fill:#ee531b;fill-opacity:1;fill-rule:nonzero;stroke:none" /><path
           d="m 1197.95,161.083 c 0,9.634 7.62,14.451 14.85,14.451 7.62,0 14.05,-2.81 14.05,-12.043 l 0.4,0 c 5.42,8.029 11.24,12.043 20.27,12.043 7.03,0 14.05,-5.018 14.05,-15.454 0,-9.434 -8.63,-10.036 -17.26,-14.05 -8.63,-4.014 -17.46,-7.827 -17.46,-19.268 l 0,-44.355 c 0,-9.634 -6.02,-16.057 -14.45,-16.057 -8.43,0 -14.45,6.423 -14.45,16.057 l 0,78.676 z"
           inkscape:connector-curvature="0"
           id="path60"
           style="fill:none;stroke:#313638;stroke-width:7;stroke-linecap:butt;stroke-linejoin:miter;stroke-miterlimit:4;stroke-opacity:1;stroke-dasharray:none" /><path
           d="m 1310.74,150.245 c -15.06,0 -22.48,-15.856 -22.48,-29.504 0,-13.447 7.42,-29.102 22.48,-29.102 15.85,0 22.68,16.057 22.68,30.106 0,14.049 -7.23,28.5 -22.68,28.5 z m 51.58,-67.838 c 0,-9.634 -6.02,-16.057 -14.45,-16.057 -8.03,0 -12.65,4.415 -14.45,12.042 -5.42,-8.831 -16.66,-13.246 -26.5,-13.246 -29.1,0 -47.57,27.095 -47.57,54.391 0,28.099 15.46,57.201 46.57,57.201 10.03,0 19.87,-3.412 27.5,-10.035 l 0,39.338 c 0,9.635 6.02,16.057 14.45,16.057 8.43,0 14.45,-6.422 14.45,-16.057 l 0,-123.634"
           inkscape:connector-curvature="0"
           id="path62"
           style="fill:#ee531b;fill-opacity:1;fill-rule:nonzero;stroke:none" /><path
           d="m 1310.74,150.245 c -15.06,0 -22.48,-15.856 -22.48,-29.504 0,-13.447 7.42,-29.102 22.48,-29.102 15.85,0 22.68,16.057 22.68,30.106 0,14.049 -7.23,28.5 -22.68,28.5 z m 51.58,-67.838 c 0,-9.634 -6.02,-16.057 -14.45,-16.057 -8.03,0 -12.65,4.415 -14.45,12.042 -5.42,-8.831 -16.66,-13.246 -26.5,-13.246 -29.1,0 -47.57,27.095 -47.57,54.391 0,28.099 15.46,57.201 46.57,57.201 10.03,0 19.87,-3.412 27.5,-10.035 l 0,39.338 c 0,9.635 6.02,16.057 14.45,16.057 8.43,0 14.45,-6.422 14.45,-16.057 l 0,-123.634 z"
           inkscape:connector-curvature="0"
           id="path64"
           style="fill:none;stroke:#313638;stroke-width:7;stroke-linecap:butt;stroke-linejoin:miter;stroke-miterlimit:4;stroke-opacity:1;stroke-dasharray:none" /><path
           d="m 1390.44,96.456 c 8.63,0 15.65,-7.025 15.65,-15.655 0,-8.631 -7.02,-15.655 -15.65,-15.655 -8.63,0 -15.66,7.024 -15.66,15.655 0,8.63 7.03,15.655 15.66,15.655"
           inkscape:connector-curvature="0"
           id="path66"
           style="fill:#ee531b;fill-opacity:1;fill-rule:nonzero;stroke:none" /><path
           d="m 1390.44,96.456 c 8.63,0 15.65,-7.025 15.65,-15.655 0,-8.631 -7.02,-15.655 -15.65,-15.655 -8.63,0 -15.66,7.024 -15.66,15.655 0,8.63 7.03,15.655 15.66,15.655 z"
           inkscape:connector-curvature="0"
           id="path68"
           style="fill:none;stroke:#313638;stroke-width:7;stroke-linecap:butt;stroke-linejoin:miter;stroke-miterlimit:4;stroke-opacity:1;stroke-dasharray:none" /><path
           d="m 1438.25,120.741 c 0,-13.849 7.22,-29.102 22.88,-29.102 15.65,0 22.88,15.253 22.88,29.102 0,13.849 -7.03,29.504 -22.88,29.504 -15.86,0 -22.88,-15.655 -22.88,-29.504 z m 74.66,0 c 0,-30.105 -20.67,-55.595 -51.78,-55.595 -31.11,0 -51.79,25.49 -51.79,55.595 0,29.303 21.28,55.997 51.79,55.997 30.5,0 51.78,-26.694 51.78,-55.997"
           inkscape:connector-curvature="0"
           id="path70"
           style="fill:#ee531b;fill-opacity:1;fill-rule:nonzero;stroke:none" /><path
           d="m 1438.25,120.741 c 0,-13.849 7.22,-29.102 22.88,-29.102 15.65,0 22.88,15.253 22.88,29.102 0,13.849 -7.03,29.504 -22.88,29.504 -15.86,0 -22.88,-15.655 -22.88,-29.504 z m 74.66,0 c 0,-30.105 -20.67,-55.595 -51.78,-55.595 -31.11,0 -51.79,25.49 -51.79,55.595 0,29.303 21.28,55.997 51.79,55.997 30.5,0 51.78,-26.694 51.78,-55.997 z"
           inkscape:connector-curvature="0"
           id="path72"
           style="fill:none;stroke:#313638;stroke-width:7;stroke-linecap:butt;stroke-linejoin:miter;stroke-miterlimit:4;stroke-opacity:1;stroke-dasharray:none" /><path
           d="m 1519.75,161.083 c 0,9.634 7.63,14.451 14.85,14.451 7.63,0 14.05,-2.81 14.05,-12.043 l 0.4,0 c 5.42,8.029 11.24,12.043 20.28,12.043 7.02,0 14.04,-5.018 14.04,-15.454 0,-9.434 -8.63,-10.036 -17.26,-14.05 -8.63,-4.014 -17.46,-7.827 -17.46,-19.268 l 0,-44.355 c 0,-9.634 -6.02,-16.057 -14.45,-16.057 -8.43,0 -14.45,6.423 -14.45,16.057 l 0,78.676"
           inkscape:connector-curvature="0"
           id="path74"
           style="fill:#ee531b;fill-opacity:1;fill-rule:nonzero;stroke:none" /><path
           d="m 1519.75,161.083 c 0,9.634 7.63,14.451 14.85,14.451 7.63,0 14.05,-2.81 14.05,-12.043 l 0.4,0 c 5.42,8.029 11.24,12.043 20.28,12.043 7.02,0 14.04,-5.018 14.04,-15.454 0,-9.434 -8.63,-10.036 -17.26,-14.05 -8.63,-4.014 -17.46,-7.827 -17.46,-19.268 l 0,-44.355 c 0,-9.634 -6.02,-16.057 -14.45,-16.057 -8.43,0 -14.45,6.423 -14.45,16.057 l 0,78.676 z"
           inkscape:connector-curvature="0"
           id="path76"
           style="fill:none;stroke:#313638;stroke-width:7;stroke-linecap:butt;stroke-linejoin:miter;stroke-miterlimit:4;stroke-opacity:1;stroke-dasharray:none" /><path
           d="m 1633.15,150.245 c -15.05,0 -22.48,-15.655 -22.48,-29.102 0,-15.455 7.43,-29.504 22.48,-29.504 15.46,0 22.68,14.451 22.68,28.5 0,14.05 -6.82,30.106 -22.68,30.106 z m 51.58,-74.261 c 0,-34.723 -22.68,-52.183 -55.59,-52.183 -11.84,0 -45.56,5.82 -45.56,21.675 0,5.419 6.02,12.645 11.64,12.645 9.23,0 19.47,-9.031 36.12,-9.031 14.05,0 24.49,8.228 24.49,22.88 l 0,6.824 -0.4,0 c -6.02,-8.831 -15.86,-13.648 -29.1,-13.648 -30.31,0 -44.56,26.694 -44.56,55.395 0,29.102 18.47,56.197 47.57,56.197 9.83,0 21.07,-4.415 26.49,-13.247 1.81,7.627 6.42,12.043 14.45,12.043 8.43,0 14.45,-6.422 14.45,-16.056 l 0,-83.494"
           inkscape:connector-curvature="0"
           id="path78"
           style="fill:#ee531b;fill-opacity:1;fill-rule:nonzero;stroke:none" /><path
           d="m 1633.15,150.245 c -15.05,0 -22.48,-15.655 -22.48,-29.102 0,-15.455 7.43,-29.504 22.48,-29.504 15.46,0 22.68,14.451 22.68,28.5 0,14.05 -6.82,30.106 -22.68,30.106 z m 51.58,-74.261 c 0,-34.723 -22.68,-52.183 -55.59,-52.183 -11.84,0 -45.56,5.82 -45.56,21.675 0,5.419 6.02,12.645 11.64,12.645 9.23,0 19.47,-9.031 36.12,-9.031 14.05,0 24.49,8.228 24.49,22.88 l 0,6.824 -0.4,0 c -6.02,-8.831 -15.86,-13.648 -29.1,-13.648 -30.31,0 -44.56,26.694 -44.56,55.395 0,29.102 18.47,56.197 47.57,56.197 9.83,0 21.07,-4.415 26.49,-13.247 1.81,7.627 6.42,12.043 14.45,12.043 8.43,0 14.45,-6.422 14.45,-16.056 l 0,-83.494 z"
           inkscape:connector-curvature="0"
           id="path80"
           style="fill:none;stroke:#313638;stroke-width:7;stroke-linecap:butt;stroke-linejoin:miter;stroke-miterlimit:4;stroke-opacity:1;stroke-dasharray:none" /></g></g><g
       id="g82"><g
         clip-path="url(#clipPath86)"
         id="g84"><g
           clip-path="url(#clipPath92)"
           id="g90"><path
             d="m 235.574,201.841 c 5.436,29.649 -19.963,53.306 -58.584,66.548 -10.392,36.774 -33.912,58.632 -68.317,58.632 -19.975,0 -37.741,-7.844 -49.141,-20.027 C 33.93,305.421 33.746,275.292 11.405,232.206 -6.086,198.474 7.674,163.538 49.883,158.097 43.294,142.852 39.861,125.176 39.541,107.335 c -21.414,24.522 -15.546,49.868 -27.508,49.206 -14.988,-0.83 4.189,-53.965 30.809,-83.643 1.064,-4.913 2.38,-9.718 3.951,-14.357 -9.288,-3.214 -19.018,-12.84 -19.018,-24 0,-12.696 8.708,-13.88 19.984,-13.989 -0.348,-1.496 -0.574,-2.987 -0.586,-4.462 -0.045,-3.141 1.145,-6.436 4.012,-8.591 2.84,-2.156 6.87,-3.244 12.5,-3.456 0.825,-0.029 1.634,-0.042 2.42,-0.042 0.02,0 0.039,0 0.058,0 11.893,0 20.075,3.328 25.243,8.033 5.177,4.711 7.219,10.629 7.219,15.473 0,1.287 -0.144,2.508 -0.424,3.64 -0.108,0.413 -0.229,1.111 -0.353,2.03 9.512,0.873 19.175,0.963 28.878,0.18 -0.134,-1.008 -0.261,-1.771 -0.377,-2.21 -0.263,-1.048 -0.393,-2.177 -0.393,-3.358 0.004,-4.908 2.243,-10.871 7.607,-15.632 C 138.926,7.402 147.336,4 159.406,4 l 0.036,0 c 0.789,0 1.595,0.014 2.421,0.043 5.485,0.208 9.418,1.242 12.211,3.309 2.823,2.064 4.03,5.274 3.981,8.33 -0.016,1.609 -0.278,3.235 -0.705,4.866 11.49,0.083 20.426,1.132 20.426,13.993 0,11.16 -9.731,20.786 -19.018,24 9.852,30.602 9.041,66.207 -1.715,94.475 l -0.644,0.418 c 11.134,2.209 21.279,5.89 29.931,10.82 3.76,-6.055 7.434,-11.953 16.112,-10.713 13.07,1.867 18.578,21.424 7.375,32.922 2.787,4.755 4.752,9.898 5.757,15.378"
             inkscape:connector-curvature="0"
             id="path96"
             style="fill:#ffffff;fill-opacity:1;fill-rule:nonzero;stroke:none" /><path
             d="m 235.574,201.841 c 5.436,29.649 -19.963,53.306 -58.584,66.548 -10.392,36.774 -33.912,58.632 -68.317,58.632 -19.975,0 -37.741,-7.844 -49.141,-20.027 C 33.93,305.421 33.746,275.292 11.405,232.206 -6.086,198.474 7.674,163.538 49.883,158.097 43.294,142.852 39.861,125.176 39.541,107.335 c -21.414,24.522 -15.546,49.868 -27.508,49.206 -14.988,-0.83 4.189,-53.965 30.809,-83.643 1.064,-4.913 2.38,-9.718 3.951,-14.357 -9.288,-3.214 -19.018,-12.84 -19.018,-24 0,-12.696 8.708,-13.88 19.984,-13.989 -0.348,-1.496 -0.574,-2.987 -0.586,-4.462 -0.045,-3.141 1.145,-6.436 4.012,-8.591 2.84,-2.156 6.87,-3.244 12.5,-3.456 0.825,-0.029 1.634,-0.042 2.42,-0.042 0.02,0 0.039,0 0.058,0 11.893,0 20.075,3.328 25.243,8.033 5.177,4.711 7.219,10.629 7.219,15.473 0,1.287 -0.144,2.508 -0.424,3.64 -0.108,0.413 -0.229,1.111 -0.353,2.03 9.512,0.873 19.175,0.963 28.878,0.18 -0.134,-1.008 -0.261,-1.771 -0.377,-2.21 -0.263,-1.048 -0.393,-2.177 -0.393,-3.358 0.004,-4.908 2.243,-10.871 7.607,-15.632 C 138.926,7.402 147.336,4 159.406,4 l 0.036,0 c 0.789,0 1.595,0.014 2.421,0.043 5.485,0.208 9.418,1.242 12.211,3.309 2.823,2.064 4.03,5.274 3.981,8.33 -0.016,1.609 -0.278,3.235 -0.705,4.866 11.49,0.083 20.426,1.132 20.426,13.993 0,11.16 -9.731,20.786 -19.018,24 9.852,30.602 9.041,66.207 -1.715,94.475 l -0.644,0.418 c 11.134,2.209 21.279,5.89 29.931,10.82 3.76,-6.055 7.434,-11.953 16.112,-10.713 13.07,1.867 18.578,21.424 7.375,32.922 2.787,4.755 4.752,9.898 5.757,15.378 z"
             inkscape:connector-curvature="0"
             id="path98"
             style="fill:none;stroke:#000000;stroke-width:8;stroke-linecap:butt;stroke-linejoin:miter;stroke-miterlimit:4;stroke-opacity:1;stroke-dasharray:none" /><path
             d="m 237.574,203.841 c 5.436,29.649 -19.963,53.306 -58.584,66.548 -10.392,36.774 -33.912,58.632 -68.317,58.632 -19.975,0 -37.741,-7.844 -49.141,-20.027 C 35.93,307.421 35.746,277.292 13.405,234.206 -4.086,200.474 9.673,165.538 51.883,160.097 45.294,144.852 41.861,127.176 41.541,109.335 c -21.414,24.522 -15.546,49.868 -27.508,49.206 -14.988,-0.83 4.189,-53.965 30.808,-83.643 1.065,-4.913 2.381,-9.718 3.952,-14.357 -9.288,-3.214 -19.018,-12.84 -19.018,-24 0,-12.696 8.708,-13.88 19.985,-13.989 -0.349,-1.496 -0.575,-2.987 -0.587,-4.462 -0.045,-3.141 1.145,-6.436 4.012,-8.591 2.84,-2.156 6.87,-3.244 12.5,-3.456 0.825,-0.029 1.634,-0.042 2.42,-0.042 0.02,0 0.039,0 0.058,0 11.893,0 20.075,3.328 25.243,8.033 5.177,4.711 7.219,10.629 7.219,15.473 0,1.287 -0.144,2.508 -0.424,3.64 -0.109,0.413 -0.229,1.111 -0.353,2.03 9.512,0.873 19.175,0.963 28.878,0.18 -0.134,-1.008 -0.261,-1.771 -0.377,-2.21 -0.263,-1.048 -0.393,-2.177 -0.393,-3.358 0.004,-4.908 2.243,-10.871 7.607,-15.632 C 140.926,9.402 149.336,6 161.406,6 l 0.036,0 c 0.789,0 1.595,0.014 2.421,0.043 5.485,0.208 9.418,1.242 12.211,3.309 2.823,2.064 4.03,5.274 3.981,8.33 -0.016,1.609 -0.278,3.235 -0.705,4.866 11.49,0.083 20.426,1.132 20.426,13.993 0,11.16 -9.731,20.786 -19.018,24 9.852,30.602 9.041,66.207 -1.715,94.475 l -0.644,0.418 c 11.134,2.209 21.279,5.89 29.931,10.82 3.76,-6.055 7.434,-11.953 16.112,-10.713 13.07,1.867 18.578,21.424 7.375,32.922 2.787,4.755 4.752,9.898 5.757,15.378"
             inkscape:connector-curvature="0"
             id="path100"
             style="fill:#ffffff;fill-opacity:1;fill-rule:nonzero;stroke:none" /><path
             d="m 237.574,203.841 c 5.436,29.649 -19.963,53.306 -58.584,66.548 -10.392,36.774 -33.912,58.632 -68.317,58.632 -19.975,0 -37.741,-7.844 -49.141,-20.027 C 35.93,307.421 35.746,277.292 13.405,234.206 -4.086,200.474 9.673,165.538 51.883,160.097 45.294,144.852 41.861,127.176 41.541,109.335 c -21.414,24.522 -15.546,49.868 -27.508,49.206 -14.988,-0.83 4.189,-53.965 30.808,-83.643 1.065,-4.913 2.381,-9.718 3.952,-14.357 -9.288,-3.214 -19.018,-12.84 -19.018,-24 0,-12.696 8.708,-13.88 19.985,-13.989 -0.349,-1.496 -0.575,-2.987 -0.587,-4.462 -0.045,-3.141 1.145,-6.436 4.012,-8.591 2.84,-2.156 6.87,-3.244 12.5,-3.456 0.825,-0.029 1.634,-0.042 2.42,-0.042 0.02,0 0.039,0 0.058,0 11.893,0 20.075,3.328 25.243,8.033 5.177,4.711 7.219,10.629 7.219,15.473 0,1.287 -0.144,2.508 -0.424,3.64 -0.109,0.413 -0.229,1.111 -0.353,2.03 9.512,0.873 19.175,0.963 28.878,0.18 -0.134,-1.008 -0.261,-1.771 -0.377,-2.21 -0.263,-1.048 -0.393,-2.177 -0.393,-3.358 0.004,-4.908 2.243,-10.871 7.607,-15.632 C 140.926,9.402 149.336,6 161.406,6 l 0.036,0 c 0.789,0 1.595,0.014 2.421,0.043 5.485,0.208 9.418,1.242 12.211,3.309 2.823,2.064 4.03,5.274 3.981,8.33 -0.016,1.609 -0.278,3.235 -0.705,4.866 11.49,0.083 20.426,1.132 20.426,13.993 0,11.16 -9.731,20.786 -19.018,24 9.852,30.602 9.041,66.207 -1.715,94.475 l -0.644,0.418 c 11.134,2.209 21.279,5.89 29.931,10.82 3.76,-6.055 7.434,-11.953 16.112,-10.713 13.07,1.867 18.578,21.424 7.375,32.922 2.787,4.755 4.752,9.898 5.757,15.378 z"
             inkscape:connector-curvature="0"
             id="path102"
             style="fill:none;stroke:#231f20;stroke-width:5;stroke-linecap:butt;stroke-linejoin:miter;stroke-miterlimit:4;stroke-opacity:1;stroke-dasharray:none" /></g></g></g><g
       id="g104"><g
         clip-path="url(#clipPath108)"
         id="g106"><path
           d="m 180.759,60.539 c 3.98,2 20.02,-6 19.02,-24 -1,-18 -23,-14 -23,-14 l -10,23 c 0,0 -4,44 -3,67 1,23 -15,39 -15,39 0,0 7,1 16,1 9,0 14.26,2.48 14.26,2.48 0,0 7.74,-9.48 8.74,-41.48 1,-32 -11,-55 -7.02,-53"
           inkscape:connector-curvature="0"
           id="path112"
           style="fill:#a1781e;fill-opacity:1;fill-rule:nonzero;stroke:none" /><path
           d="m 158.779,308.539 c 9,-9 21.79,-40.45 21.79,-40.45 0,0 -22.47,2.28 -32.12,11.37 -5.54,5.22 -31.41,47.94 -31.41,47.94 8,0 32.74,-9.86 41.74,-18.86"
           inkscape:connector-curvature="0"
           id="path114"
           style="fill:#a1781e;fill-opacity:1;fill-rule:nonzero;stroke:none" /><path
           d="m 110.669,329.019 c 0,0 31.03,-46.83 30.68,-63.68 -0.5,-24.7 -43.529,-18.92 -15.57,-86.8 7,-17 -9,-31 -31.999,-27 -10.481,1.82 -30.001,-3 -30.001,-34 0,-31 -2,-72 -2,-72 l -9,-23 c 0,0 -22,-3 -22,10 0,13 6,17 15,24 9,7 -0.939,18.36 -0.939,18.36 0,0 -31.061,44.64 -32.061,51.64 -0.999,7 11.001,16 11.001,16 0,0 14.53,-30.41 17.76,-33.2 3.24,-2.8 2.239,39.2 8.239,45.2 6,6 9,151 9,151 0,0 4.79,16.96 51.89,23.48"
           inkscape:connector-curvature="0"
           id="path116"
           style="fill:#a1781e;fill-opacity:1;fill-rule:nonzero;stroke:none" /></g></g><g
       id="g118"><g
         clip-path="url(#clipPath122)"
         id="g120"><g
           clip-path="url(#clipPath128)"
           id="g126"><path
             d="m 102.781,204.505 c -40.343,-7.185 -60.44,-50.683 -61.24,-95.17 -21.414,24.522 -15.546,49.868 -27.509,49.206 -14.987,-0.83 4.19,-53.965 30.81,-83.643 1.064,-4.913 2.38,-9.718 3.95,-14.357 -9.287,-3.214 -19.017,-12.84 -19.017,-24 0,-13.807 10.298,-14 23,-14 6.144,0 11.721,2.623 15.847,6.89 29.153,8.11 61.153,9.11 92.306,0 4.126,-4.267 9.703,-6.89 15.848,-6.89 12.702,0 23,0.193 23,14 0,11.16 -9.731,20.786 -19.018,24 9.852,30.602 9.041,66.207 -1.715,94.475"
             inkscape:connector-curvature="0"
             id="path132"
             style="fill:none;stroke:#231f20;stroke-width:5;stroke-linecap:butt;stroke-linejoin:miter;stroke-miterlimit:4;stroke-opacity:1;stroke-dasharray:none" /></g></g></g><g
       id="g134"><g
         clip-path="url(#clipPath138)"
         id="g136"><path
           d="m 64.775,121.541 c 0,0 -1,-65 -3,-76 -2,-11 -24,-36 4,-37 28,-1 34,16 32,24 -2,8 -4,68 -4,68"
           inkscape:connector-curvature="0"
           id="path142"
           style="fill:#ffffff;fill-opacity:1;fill-rule:nonzero;stroke:none" /><path
           d="m 68.106,6.001 c -0.787,0 -1.596,0.013 -2.421,0.042 -5.63,0.212 -9.66,1.3 -12.499,3.456 -2.867,2.155 -4.058,5.45 -4.013,8.591 0.042,5.11 2.452,10.417 4.834,15.454 2.405,4.969 4.86,9.752 5.309,12.444 0.451,2.435 0.906,8.608 1.274,16.192 0.374,7.612 0.687,16.755 0.937,25.557 0.498,17.605 0.748,12.841 0.748,20.228 0,7.388 2.5,13.576 2.5,13.576 0,0 2.499,-5.04 2.499,-13.653 0,-6.317 -0.562,-22.956 -1.689,-45.954 -0.383,-7.697 -0.802,-13.775 -1.351,-16.84 -0.788,-4.1 -3.385,-8.783 -5.72,-13.709 -2.36,-4.862 -4.385,-9.883 -4.342,-13.295 0.047,-2.132 0.553,-3.422 2.059,-4.625 1.535,-1.204 4.556,-2.254 9.631,-2.424 C 66.626,11.013 67.374,11 68.106,11 c 11.034,0.01 17.844,3.021 21.937,6.735 4.092,3.712 5.583,8.298 5.583,11.772 0,0.913 -0.105,1.745 -0.276,2.429 -0.597,2.464 -1.052,7.602 -1.538,14.433 -0.472,6.782 -0.908,15.044 -1.284,23.055 -0.751,16.021 -0.541,12.301 -0.541,18.786 0,6.486 1.788,12.331 1.788,12.331 0,0 3.213,-6.874 3.213,-13.999 0,-7.124 -0.435,5.656 0.023,-5.302 0.455,-10.956 1.088,-24.447 1.789,-34.525 0.452,-6.669 0.997,-12.033 1.401,-13.568 0.28,-1.132 0.423,-2.353 0.423,-3.64 0,-4.844 -2.041,-10.762 -7.218,-15.473 -5.168,-4.705 -13.35,-8.033 -25.243,-8.033 -0.019,0 -0.038,0 -0.057,0"
           inkscape:connector-curvature="0"
           id="path144"
           style="fill:#000000;fill-opacity:1;fill-rule:nonzero;stroke:none" /><path
           d="m 163.776,121.541 c 0,0 1,-65 3,-76 2,-11 25,-36 -3,-37 -28,-1 -35.001,16 -33,24 2,8 4,68 4,68"
           inkscape:connector-curvature="0"
           id="path146"
           style="fill:#ffffff;fill-opacity:1;fill-rule:nonzero;stroke:none" /><path
           d="m 135.563,14.157 c -5.365,4.761 -7.603,10.724 -7.607,15.632 0,1.181 0.13,2.31 0.393,3.358 0.404,1.535 0.949,6.9 1.4,13.568 0.466,6.716 0.905,14.954 1.278,22.943 0.75,15.98 1.25,13.468 1.25,19.344 0,5.877 3.059,11.623 3.059,11.623 0,0 1.938,-5.329 1.938,-11.79 0,-6.46 -1.125,-22.134 -2.537,-42.467 -0.485,-6.83 -0.94,-11.968 -1.539,-14.438 -0.151,-0.602 -0.244,-1.332 -0.244,-2.141 -0.004,-3.403 1.615,-8.082 5.925,-11.889 4.307,-3.808 11.379,-6.891 22.562,-6.9 0.733,0 1.481,0.013 2.243,0.042 4.943,0.164 7.9,1.17 9.392,2.313 1.461,1.145 1.931,2.317 1.979,4.327 0.053,3.363 -2.119,8.472 -4.652,13.417 -2.501,5.023 -5.276,9.79 -6.088,13.996 -0.548,3.064 -0.967,9.143 -1.35,16.84 -0.376,7.669 -0.688,16.838 -0.938,25.662 -0.503,17.644 -0.751,19.579 -0.751,25.831 0,6.252 0.959,12.546 0.959,12.546 0,0 4.041,-7.127 4.041,-12.546 0,-5.419 0.138,-0.977 0.419,-12.974 0.282,-11.996 0.703,-26.856 1.264,-38.276 0.366,-7.584 0.824,-13.754 1.276,-16.189 0.442,-2.698 3.056,-7.591 5.633,-12.639 2.544,-5.123 5.136,-10.491 5.187,-15.668 0.049,-3.056 -1.158,-6.266 -3.981,-8.33 C 173.281,7.285 169.348,6.251 163.863,6.043 163.037,6.014 162.23,6 161.441,6 c -0.012,0 -0.023,0 -0.035,0 -12.07,0 -20.48,3.402 -25.843,8.157"
           inkscape:connector-curvature="0"
           id="path148"
           style="fill:#000000;fill-opacity:1;fill-rule:nonzero;stroke:none" /></g></g><g
       id="g150"><g
         clip-path="url(#clipPath154)"
         id="g152"><g
           clip-path="url(#clipPath160)"
           id="g158"><path
             d="m 127.035,155.451 c 54.324,-9.959 103.815,11.706 110.539,48.39 5.436,29.649 -19.963,53.306 -58.585,66.548 -10.392,36.774 -33.911,58.632 -68.316,58.632 -34.405,0 -62.295,-23.242 -62.295,-51.913"
             inkscape:connector-curvature="0"
             id="path164"
             style="fill:none;stroke:#000000;stroke-width:5;stroke-linecap:butt;stroke-linejoin:miter;stroke-miterlimit:4;stroke-opacity:1;stroke-dasharray:none" /></g></g></g><g
       id="g166"><g
         clip-path="url(#clipPath170)"
         id="g168"><path
           d="m 240.389,231.744 c 1.666,-9.766 -6.871,-19.369 -19.067,-21.452 -12.199,-2.082 -23.437,4.147 -25.105,13.913 -1.666,9.765 6.87,19.369 19.068,21.451 12.198,2.082 23.436,-4.147 25.104,-13.912"
           inkscape:connector-curvature="0"
           id="path174"
           style="fill:#000000;fill-opacity:1;fill-rule:nonzero;stroke:none" /><path
           d="m 240.389,231.744 c 1.666,-9.766 -6.871,-19.369 -19.067,-21.452 -12.199,-2.082 -23.437,4.147 -25.105,13.913 -1.666,9.765 6.87,19.369 19.068,21.451 12.198,2.082 23.436,-4.147 25.104,-13.912 z"
           inkscape:connector-curvature="0"
           id="path176"
           style="fill:none;stroke:#000000;stroke-width:4;stroke-linecap:butt;stroke-linejoin:miter;stroke-miterlimit:4;stroke-opacity:1;stroke-dasharray:none" /></g></g><g
       id="g178"><g
         clip-path="url(#clipPath182)"
         id="g180"><g
           clip-path="url(#clipPath188)"
           id="g186"><path
             d="m 103.019,234.749 c 21.86,-57.92 -11.579,-75.41 -39.339,-75.41 -51.37,0 -69.31,38.16 -50.271,74.87 22.95,44.26 22.5,74.86 50.271,74.86 27.76,0 24.75,-35.63 39.339,-74.32"
             inkscape:connector-curvature="0"
             id="path192"
             style="fill:#a1781e;fill-opacity:1;fill-rule:nonzero;stroke:none" /><path
             d="m 103.019,234.749 c 21.86,-57.92 -11.579,-75.41 -39.339,-75.41 -51.37,0 -69.31,38.16 -50.271,74.87 22.95,44.26 22.5,74.86 50.271,74.86 27.76,0 24.75,-35.63 39.339,-74.32 z"
             inkscape:connector-curvature="0"
             id="path194"
             style="fill:none;stroke:#000000;stroke-width:5;stroke-linecap:butt;stroke-linejoin:miter;stroke-miterlimit:4;stroke-opacity:1;stroke-dasharray:none" /></g></g></g><g
       id="g196"><g
         clip-path="url(#clipPath200)"
         id="g198"><path
           d="m 231.26,242.367 c 0.937,-2.474 -4.791,-6.94 -12.795,-9.974 -8.006,-3.034 -15.254,-3.488 -16.193,-1.014 -0.938,2.475 4.791,6.941 12.797,9.975 8.003,3.034 15.251,3.488 16.191,1.013"
           inkscape:connector-curvature="0"
           id="path204"
           style="fill:#ffffff;fill-opacity:1;fill-rule:nonzero;stroke:none" /><path
           d="m 125.756,273.934 c 0,-4.405 -5.246,-7.977 -11.717,-7.977 -6.471,0 -11.717,3.572 -11.717,7.977 0,4.405 5.246,7.977 11.717,7.977 6.471,0 11.717,-3.572 11.717,-7.977"
           inkscape:connector-curvature="0"
           id="path206"
           style="fill:#000000;fill-opacity:1;fill-rule:nonzero;stroke:none" /><path
           d="m 125.756,273.934 c 0,-4.405 -5.246,-7.977 -11.717,-7.977 -6.471,0 -11.717,3.572 -11.717,7.977 0,4.405 5.246,7.977 11.717,7.977 6.471,0 11.717,-3.572 11.717,-7.977 z"
           inkscape:connector-curvature="0"
           id="path208"
           style="fill:none;stroke:#000000;stroke-width:4;stroke-linecap:butt;stroke-linejoin:miter;stroke-miterlimit:4;stroke-opacity:1;stroke-dasharray:none" /><path
           d="m 176.547,281.967 c 0,-4.683 -2.67,-8.479 -9.084,-8.479 -6.412,0 -11.61,3.796 -11.61,8.479 0,4.684 5.198,8.481 11.61,8.481 6.414,0 9.084,-3.797 9.084,-8.481"
           inkscape:connector-curvature="0"
           id="path210"
           style="fill:#000000;fill-opacity:1;fill-rule:nonzero;stroke:none" /><path
           d="m 113.274,277.47 c 0,-1.649 -1.66,-2.987 -3.706,-2.987 -2.047,0 -3.706,1.338 -3.706,2.987 0,1.649 1.659,2.986 3.706,2.986 2.046,0 3.706,-1.337 3.706,-2.986"
           inkscape:connector-curvature="0"
           id="path212"
           style="fill:#ffffff;fill-opacity:1;fill-rule:nonzero;stroke:none" /><path
           d="m 165.839,284.097 c 0,-1.501 -1.406,-2.717 -3.142,-2.717 -1.736,0 -3.142,1.216 -3.142,2.717 0,1.499 1.406,2.715 3.142,2.715 1.736,0 3.142,-1.216 3.142,-2.715"
           inkscape:connector-curvature="0"
           id="path214"
           style="fill:#ffffff;fill-opacity:1;fill-rule:nonzero;stroke:none" /><path
           d="m 161.524,164.493 c 33.07,-10.23 74.228,0.115 75.67,41.742 0,0 0.796,8.923 -1.418,4.639 -10,-19.333 -33.354,-28.064 -70.459,-32.765 -5.229,-0.662 -16.389,-0.751 -17.08,-5.672 -0.369,-2.627 3.034,-4.772 13.287,-7.944"
           inkscape:connector-curvature="0"
           id="path216"
           style="fill:#000000;fill-opacity:1;fill-rule:nonzero;stroke:none" /><path
           d="m 226.908,192.439 c 15.186,-10.113 11.116,-32.676 -2.752,-35.457 -15.504,-3.11 -16.051,17.885 -29.187,20.396 0,0 13.199,2.745 20.336,6.483 7.135,3.738 11.603,8.578 11.603,8.578"
           inkscape:connector-curvature="0"
           id="path218"
           style="fill:#f1501b;fill-opacity:1;fill-rule:nonzero;stroke:none" /><path
           d="m 226.908,192.439 c 15.186,-10.113 11.116,-32.676 -2.752,-35.457 -15.504,-3.11 -16.051,17.885 -29.187,20.396 0,0 13.199,2.745 20.336,6.483 7.135,3.738 11.603,8.578 11.603,8.578 z"
           inkscape:connector-curvature="0"
           id="path220"
           style="fill:none;stroke:#000000;stroke-width:5;stroke-linecap:butt;stroke-linejoin:miter;stroke-miterlimit:4;stroke-opacity:1;stroke-dasharray:none" /><path
           d="m 216.893,182.219 c 0,0 10.781,-5.906 11.826,-20.832 0,0 -2.908,8.957 -5.285,12.122 -2.375,3.164 -6.541,8.71 -6.541,8.71"
           inkscape:connector-curvature="0"
           id="path222"
           style="fill:#a53a1f;fill-opacity:1;fill-rule:nonzero;stroke:none" /><path
           d="m 100.875,214.457 c 0,0 10.499,-52.499 -53.997,-43.499 0,0 23.999,12 32.998,19.5 9,7.5 20.999,23.999 20.999,23.999"
           inkscape:connector-curvature="0"
           id="path224"
           style="fill:#815b1d;fill-opacity:1;fill-rule:nonzero;stroke:none" /><text
           transform="matrix(1,0,0,-1,1656.73,204.915)"
           id="text226"><tspan
             x="0 14.6592"
             y="0"
             id="tspan228"
             style="font-size:24px;font-variant:normal;font-weight:normal;writing-mode:lr-tb;fill:#231f20;fill-opacity:1;fill-rule:nonzero;stroke:none;font-family:ArialMT;-inkscape-font-specification:ArialMT">TM</tspan></text>
</g></g></g></svg>